<?xml version="1.0" encoding="UTF-8" standalone="no"?>
<svg width="800px" height="1000px" viewBox="300 300 230 290" version="1.1" xmlns="http://www.w3.org/2000/svg" xmlns:xlink="http://www.w3.org/1999/xlink">
    <!-- Generator: Sketch 50.2 (55047) - http://www.bohemiancoding.com/sketch -->
    <title>boyarmsout0001B_DL</title>
    <desc>Created with Sketch.</desc>
    <defs></defs>
    <g id="boyarmsout0001B_DL" stroke="none" stroke-width="1" fill="none" fill-rule="evenodd">
        <g id="boyarmsout0001B" transform="translate(302.323711, 300.758405)">
            <circle id="Oval-12" fill="#FFFFFF" cx="128.451059" cy="59.0964976" r="48.2227683"></circle>
            <rect id="Rectangle-7" fill="#FFFFFF" x="104.482665" y="147.883156" width="57.867322" height="78.763855"></rect>
            <path d="M112.46787,181.845324 C117.200898,181.606385 120.84599,179.089899 124.24706,176.258216 C127.3431,173.680724 130.373052,170.981221 133.077639,168.007191 C136.514295,164.209585 141.338831,161.525333 142.919896,156.177164 C138.649495,151.037431 132.45233,153.294643 127.154999,152.094864 C126.377176,151.922014 125.548515,151.952517 124.745273,151.962685 C122.096608,151.98302 119.773306,152.933693 119.31068,155.709453 C118.421013,161.011868 115.401229,165.394113 113.545638,170.269487 C112.142507,173.95525 110.068312,177.661348 112.46787,181.845324 M111.115577,209.094549 C111.115577,209.369075 111.085074,209.77578 111.120661,210.177401 C112.045914,220.126418 116.179052,223.435979 126.06198,221.992177 C129.239362,221.52955 132.431995,220.965247 135.512784,220.080664 C138.791842,219.145243 141.516765,216.872779 142.309839,213.654727 C144.526381,204.671634 146.25996,195.566529 148.105383,186.497011 C148.24773,185.790361 147.896947,184.387229 147.525829,184.290637 C146.498899,184.031363 145.075432,183.883932 144.282358,184.412648 C134.18591,191.082608 124.653765,198.632067 113.723572,203.995487 C111.588371,205.037668 111.07999,206.837337 111.115577,209.094549 M96.504705,151.977936 C91.5327381,148.973404 87.267421,148.871728 83.0071877,150.961174 C72.5396215,156.095823 61.2688133,157.615882 49.8454907,157.849738 C37.6799318,158.098844 25.5042052,158.678399 13.3284787,157.590463 C7.47192882,157.066831 3.55231079,154.321573 1.08666262,149.125919 C-0.0216081019,146.797533 0.766382551,143.996354 3.24219834,143.050765 C5.08762162,142.344115 7.11606207,141.744225 9.07332918,141.728974 C17.2023424,141.662884 25.3567747,141.423945 33.4502013,142.0035 C47.6035302,143.020262 60.9688684,140.890145 73.4547074,133.940576 C75.9305232,132.55778 78.48768,131.276659 81.1160101,130.203975 C83.7697593,129.11604 86.8149618,128.256876 89.4483758,129.415985 C99.107616,133.660966 109.432835,132.532361 119.463194,133.193256 C129.264781,133.849067 138.654579,136.441811 148.293484,137.763602 C151.440363,138.195726 154.409308,139.888635 157.464679,140.996905 C162.767093,142.913502 166.015648,146.680606 168.33895,151.794919 C171.450242,158.627561 173.854884,164.956905 170.103032,172.64871 C167.866155,177.234308 167.754311,182.811248 167.20526,188.108579 C166.28509,196.944242 164.40408,205.69348 162.573908,214.407131 C161.546979,219.292673 160.377702,223.629164 164.836204,227.81314 C168.089843,230.86851 169.315041,235.321928 169.935266,239.938028 C170.916442,247.172291 172.309406,254.365883 173.865052,261.503553 C175.359692,268.387033 174.454774,275.275596 174.434439,282.16416 C174.419187,287.771603 169.925099,289.505182 165.741122,291.065912 C161.77575,292.545301 157.540936,292.85033 154.587242,289.052723 C151.831816,285.514391 149.305163,281.635443 152.279192,276.861745 C155.497244,271.706761 155.55825,266.445017 154.028023,260.547797 C152.304611,253.913424 151.928409,246.938436 150.7693,240.151548 C150.082986,236.135338 147.932534,234.432261 143.921407,235.138911 C136.336362,236.481037 128.812322,238.199365 121.278114,239.826185 C117.912632,240.55317 116.992462,243.217086 116.621344,246.186032 C115.726593,253.44063 114.867429,260.700311 113.967595,267.954909 C113.769326,269.566477 113.433794,271.162794 113.215191,272.774362 C112.183177,280.445832 107.353557,285.305955 100.698849,288.076632 C93.3832452,291.121834 85.5440092,290.679543 77.8776227,289.296746 C74.7612468,288.737527 73.4038693,285.987185 72.6412977,283.150419 C71.7668823,279.917115 74.1257704,276.190682 77.3895769,275.946659 C80.2009242,275.738223 83.0580258,276.078838 85.8947921,276.180515 C90.6125684,276.353364 93.4645862,273.99956 95.0100646,269.663069 C96.3928611,265.794289 96.9419127,261.813666 97.2876118,257.73645 C97.7248195,252.484873 98.3196254,247.233297 99.1584541,242.032558 C100.276892,235.082989 100.053205,229.114596 95.1473275,222.871676 C88.6959718,214.666406 87.4250191,204.178504 87.9740707,193.853285 C88.5485413,182.958679 88.5536251,171.916642 93.2968204,161.647344 C94.6491141,158.729237 95.3557638,155.511185 96.504705,151.977936" id="Fill-45" fill="#000000"></path>
            <path d="M172.714077,56.0535464 C173.974862,48.8904572 171.895584,41.834128 170.080663,34.7574636 C168.809711,29.7702453 165.774676,26.313254 161.20433,23.7764325 C152.531349,18.9620638 143.588926,15.6321678 133.461975,16.0083698 C128.601852,16.191387 123.71631,15.9727831 118.856187,15.6982574 C113.370755,15.3881449 108.424207,16.7607738 103.874197,19.7551383 C100.488379,21.9869312 96.9856335,24.0712935 93.7777489,26.5369417 C89.8428795,29.5465576 85.8114176,32.6171793 90.1072376,38.478813 C91.6222132,40.5377563 90.09707,43.176254 89.6903652,45.5554774 C88.943045,49.9377222 88.1753896,54.3047156 88.7295249,58.829307 C90.6867921,74.7823049 97.3872545,88.1832298 109.48164,98.8999027 C115.12467,103.897289 121.606529,105.920645 128.637439,103.673601 C137.493437,100.847002 146.54262,98.3966054 154.85465,94.0296121 C157.757506,92.5095527 160.828128,91.0810019 162.404109,88.1018888 C167.660769,78.1122009 174.554417,68.630894 172.714077,56.0535464 M122.994409,0.395987275 C141.352049,-0.991893037 158.103205,7.43198123 174.757769,16.0287051 C179.13493,18.285917 182.968123,21.3870415 185.133827,25.9980578 C189.439814,35.1387494 193.542449,44.1523457 194.28977,54.6656661 C195.052341,65.2908304 192.337586,74.8433106 188.423052,84.1924384 C182.754603,97.7052072 177.950402,102.443319 164.36646,108.401545 C155.835826,112.148313 146.923906,115.015583 138.276344,118.528496 C127.447827,122.925992 116.461712,121.100904 106.009397,118.248886 C97.7736241,116.006926 91.5357884,109.438642 86.0096862,102.860191 C82.6289521,98.8287294 79.492241,94.5379932 76.7012289,90.0744074 C73.4831768,84.929591 70.5040637,79.6170089 70.1227779,73.2419103 C69.9550122,70.4356468 68.5772995,67.66497 68.5976347,64.8892094 C68.6383052,59.581711 64.0272889,54.8334319 66.3556742,49.5208497 C68.4400366,44.7674867 67.1741677,39.8565256 68.1400918,35.1438332 C68.6027185,32.8306993 69.6804864,30.502314 71.007361,28.5297955 C75.3540191,22.0784398 80.5547574,16.4303261 87.2755551,12.3124395 C92.4559582,9.13505781 97.5702717,5.84583231 102.710004,2.61252872 C104.809618,1.29073795 107.02616,0.375652032 109.562981,0.390903464 C113.624946,0.416322517 117.68691,0.395987275 122.994409,0.395987275" id="Fill-70" fill="#000000"></path>
        </g>
    </g>
</svg>