<?xml version="1.0" encoding="UTF-8"?>
<svg width="400px" height="400px" viewBox="200 300 400 400" version="1.1" xmlns="http://www.w3.org/2000/svg" xmlns:xlink="http://www.w3.org/1999/xlink">
    <!-- Generator: Sketch 52.5 (67469) - http://www.bohemiancoding.com/sketch -->
    <title>vitruvian stickfigure_DL</title>
    <desc>Created with Sketch.</desc>
    <g id="vitruvian-stickfigure_DL" stroke="none" stroke-width="1" fill="none" fill-rule="evenodd">
        <g id="vitruvian-stickfigure" transform="translate(246.000000, 316.000000)" fill="#000000">
            <path d="M166.313641,108.563872 C166.054758,108.771006 165.789713,108.972047 165.524667,109.185273 C165.783549,108.965955 166.048595,108.764913 166.313641,108.563872 M184.231975,73.48519 C184.268958,73.7349688 184.293613,73.9847475 184.324433,74.2345262 C184.293613,73.9847475 184.268958,73.7349688 184.231975,73.48519 M137.90442,71.2737344 C137.713341,71.517421 137.522261,71.7550154 137.331182,71.9865176 C137.522261,71.7489232 137.707177,71.5113288 137.90442,71.2737344 M155.699478,44.261078 C154.257135,44.5717784 152.790137,45.0225985 151.415596,45.5465247 C148.333668,46.7162202 145.30105,47.9285609 142.484167,49.6404591 C139.476204,51.4985692 136.634666,53.7587621 134.125976,56.2809181 C131.259782,59.1868805 128.689453,62.470557 126.445809,65.8943534 C123.536468,70.4147392 122.784478,75.8672263 123.049523,81.1003954 C123.222111,84.3840719 125.699982,87.1438224 129.145579,87.1438224 C132.344621,87.1438224 135.42655,84.3840719 135.260126,81.1003954 C135.179995,79.7662114 135.167668,78.4868569 135.266289,77.1709494 C135.457369,76.226664 135.703923,75.3189315 136.030608,74.4233833 C136.634666,73.2293191 137.349673,72.1205452 138.113992,71.0178635 C140.511732,68.0936247 143.094389,65.4191645 146.009893,63.024944 C148.043966,61.6115619 150.121186,60.3504839 152.377158,59.3087238 C155.397449,58.1633969 158.411575,57.3165861 161.592126,56.7865678 C163.607707,56.609895 165.580141,56.5611577 167.620378,56.6647245 C169.272292,56.9388719 170.887223,57.3104939 172.49599,57.8831573 C173.778072,58.4740973 174.986188,59.1381432 176.151157,59.9301245 C177.334618,60.9292395 178.37631,62.0136447 179.374855,63.1955246 C180.558316,64.8769619 181.630827,66.5949522 182.549242,68.4286937 C183.350543,70.5243982 183.973093,72.6444714 184.398399,74.8437427 C184.663445,77.2501476 184.780558,79.638276 184.614134,82.0690495 C184.188828,84.3231503 183.560114,86.5041451 182.758813,88.6546791 C181.057588,92.1454892 178.838599,95.3195068 176.508661,98.4265106 C175.140285,100.156685 173.722597,101.868583 172.169305,103.422085 C170.424934,105.182721 168.569612,106.772776 166.627997,108.314093 C164.711038,109.678738 162.70162,110.793604 160.575089,111.804903 C158.238987,112.694359 155.896721,113.346221 153.437342,113.76658 C152.438797,113.845778 151.464907,113.851871 150.472526,113.797041 C149.498637,113.589907 148.574058,113.297484 147.643316,112.968507 C146.872833,112.578608 146.13317,112.164341 145.393508,111.707429 C144.123753,110.653484 142.940292,109.495973 141.849289,108.253172 C141.140446,107.247964 140.493241,106.200112 139.876855,105.133983 C139.870691,105.073062 139.858363,105.006048 139.858363,104.945126 C139.278961,102.11227 136.221687,100.11404 133.42946,100.11404 C130.033174,100.11404 126.470464,103.111385 126.784821,106.705762 C126.92659,108.612609 127.216291,109.922425 128.085395,111.609954 C128.325786,112.085143 128.615487,112.511594 128.905188,112.968507 C129.965372,114.656036 131.191979,116.252183 132.492553,117.775224 C134.828655,120.4375 137.762652,122.935287 140.992513,124.43396 C143.636808,125.676761 146.213301,126.480927 149.10415,126.864733 C152.186079,127.242448 155.194041,126.767259 158.226659,126.200688 C161.721567,125.554918 165.068541,124.080614 168.267583,122.557573 C171.571411,120.985795 174.456097,118.701233 177.248324,116.392303 C179.701539,114.345336 181.871217,112.13388 183.942273,109.751844 C186.25372,107.089568 188.374087,104.232343 190.371177,101.332473 C192.534691,98.1645475 194.513289,94.880871 195.764553,91.2377567 C197.015816,87.5519974 197.810953,83.8357771 197.977377,79.936792 C198.051344,78.5051334 197.928067,77.006461 197.835609,75.5808946 C197.644529,73.4364527 197.42263,71.2737344 196.917194,69.1536612 C196.103565,65.5592843 194.75368,62.062382 192.873703,58.8761801 C191.862831,57.1581898 190.710189,55.5681349 189.452762,53.9963565 C187.529639,51.6143203 185.335305,49.6891964 182.808124,47.9041922 C180.977458,46.6431142 178.813944,45.6927366 176.718232,44.9312161 C175.393003,44.4316586 174.067773,44.0234836 172.674742,43.7615205 C170.554375,43.3838063 168.464827,43.1218433 166.319804,43.0243687 C165.956137,43.0060922 165.592469,43 165.228802,43 C162.035923,43 158.793734,43.6214008 155.699478,44.261078" id="Fill-183"></path>
            <path d="M170.038594,147.445003 C170.314185,147.408828 170.589777,147.372654 170.865368,147.32442 C170.589777,147.366624 170.314185,147.402799 170.038594,147.445003 Z M171.490041,147.233983 C171.612526,149.078903 171.698266,150.911764 171.820751,152.744626 C172.059597,156.090804 172.273945,159.406836 172.420927,162.753014 C172.68427,169.08965 172.97211,175.40217 173.08847,181.732777 C173.210955,187.508702 173.302819,193.278598 173.37631,199.024377 C173.400807,201.918369 173.425304,204.794273 173.327316,207.664148 C173.308943,208.399705 173.308943,209.14129 173.302819,209.882875 C171.557408,209.961254 169.799749,209.979342 168.042089,210.021546 C165.610762,210.105954 163.191684,210.479761 160.797102,210.835481 C158.071811,211.167084 155.358769,211.378105 152.633478,211.601183 C150.349133,211.782058 148.083161,212.11969 145.798816,212.469381 C145.627337,207.983693 145.780443,203.455802 145.817188,198.976144 C145.841685,192.850528 145.958046,186.755058 146.221389,180.629442 C146.460235,174.859546 146.680708,169.08965 146.558223,163.295637 C146.509229,160.588549 146.343874,157.875432 146.245886,155.144227 C146.203016,153.938397 146.245886,152.738597 146.178519,151.562912 C148.909934,151.424242 151.616853,151.116755 154.311522,150.622365 C157.251162,150.103858 160.123435,149.259777 163.020205,148.620688 C165.329047,148.096152 167.686883,147.776607 170.038594,147.445003 C169.714009,147.487207 169.395548,147.529411 169.070963,147.565586 C169.867115,147.463091 170.675516,147.342508 171.490041,147.233983 Z M174.331693,134 C169.909985,134.090437 165.433159,134.681294 161.103315,135.483171 C156.846961,136.26696 152.731466,137.605431 148.462864,138.328929 C144.194262,138.744941 139.870542,138.708766 135.577444,138.895669 C132.013131,139.058456 129,141.72334 129,145.370976 C129,148.102181 130.929139,150.718832 133.531944,151.568942 C133.489075,153.094316 133.599311,154.601604 133.685051,156.181241 C133.881027,159.219932 133.97289,162.258624 134.021884,165.297315 C134.119872,171.609835 133.758542,177.898237 133.56869,184.18664 C133.378838,190.63783 133.354341,197.113137 133.354341,203.594473 C133.329844,206.934621 133.354341,210.280799 133.446205,213.645065 C133.470702,214.260038 133.495199,214.899128 133.544193,215.508072 C133.617684,216.309949 133.709548,217.015359 133.832033,217.817236 C133.97289,218.806017 134.211736,219.252174 134.646558,220.289188 C135.314101,221.796475 136.820666,222.905838 138.259865,223.635365 C140.244122,224.672379 142.350863,225.166769 144.598463,224.94972 C146.33775,224.762816 148.083161,224.431213 149.828572,224.159901 C152.20478,223.906677 154.599362,223.774036 156.987819,223.587132 C159.786601,223.38817 162.560886,222.954072 165.335171,222.574235 C168.305432,222.290865 171.318562,222.284836 174.307196,222.128078 C176.628286,221.983379 178.808519,221.681921 180.933634,220.783578 C183.089369,219.867147 184.712295,217.654449 185.220608,215.411606 C185.649306,213.367724 185.624809,211.317813 185.6983,209.243786 C185.765666,206.512581 185.937145,203.805493 185.961642,201.074288 C186.029009,195.467179 186.004512,189.884187 185.912648,184.277078 C185.81466,177.850004 185.551318,171.441018 185.336969,165.013945 C185.196111,160.136363 184.859277,155.26481 184.595935,150.411345 C184.455077,148.03586 184.357089,145.630229 184.093746,143.278861 C183.732416,140.288403 182.966884,136.634738 179.929257,135.151568 C178.165473,134.271312 176.462932,134 174.570539,134 L174.331693,134 Z" id="Fill-185"></path>
            <path d="M131.451869,218.263306 C131.281643,220.747974 131.056702,223.208341 130.777045,225.650484 C129.974553,231.251617 129.135583,236.846675 128.387806,242.447808 C128.45468,241.90106 128.527634,241.330011 128.600588,240.783263 C127.676505,247.028344 126.320779,253.151926 124.849542,259.293732 C123.420862,265.326189 122.13809,271.376871 120.837079,277.403253 C119.481353,283.593659 118.125626,289.79014 116.703026,295.980547 C115.870136,299.625536 115.201392,303.300899 114.648158,306.988413 C114.429296,307.079538 114.222594,307.182813 114.015891,307.304312 C112.641926,308.10621 111.620572,309.436631 111.219326,310.955376 C110.739046,312.644221 111.097736,314.138667 111.809036,315.657412 C112.806073,317.741131 115.207471,318.931827 117.414326,318.998652 C118.186421,319.016877 118.909881,318.846778 119.645499,318.700978 C121.42071,318.506579 123.037854,318.099555 124.39966,316.744834 C125.876976,315.262538 126.114076,313.531169 126.326859,311.653999 C127.117192,306.35054 128.357408,301.186806 129.573306,295.956247 C131.044543,289.626116 132.473223,283.26561 133.847188,276.905104 C135.294107,270.210474 136.838297,263.546219 138.382487,256.87589 C139.896281,250.351359 140.771727,243.753929 141.653253,237.113974 C142.577336,230.838518 143.568293,224.587362 143.987777,218.263306 C144.224877,214.849166 140.97235,212 137.719823,212 C134.132924,212 131.688969,214.873466 131.451869,218.263306" id="Fill-187"></path>
            <path d="M176.59712,213.211278 C175.049504,213.633834 173.709869,214.647969 172.896301,216.042404 C172.1072,217.334219 171.703475,219.296086 172.25401,220.756923 C174.547906,226.648563 175.45323,232.896357 176.670524,239.07775 C177.887819,245.21085 179.918681,251.150782 181.472414,257.211444 C183.050614,263.320398 184.439186,269.471608 185.895046,275.604708 C187.399841,281.828356 189.357299,287.961457 190.721403,294.209251 C191.149597,296.092644 191.461567,297.982074 191.798005,299.865467 C192.128326,301.779042 192.636042,303.638289 193.088704,305.503573 C193.847219,308.53994 194.538446,311.570271 194.997225,314.660967 C195.11345,315.6087 195.235791,316.56247 195.523292,317.455874 C196.52649,320.619009 199.132356,322.906848 202.55179,322.997396 C204.221747,323.045688 205.702074,322.411854 207.231338,321.959115 C208.167248,321.699545 209.145977,321.488267 210.100238,321.349427 C209.598639,321.433939 209.090923,321.494304 208.589325,321.560705 C210.375505,321.325281 211.800779,321.011382 213.10983,319.695422 C214.327124,318.518301 215,316.894478 215,315.192181 C215,311.564235 212.057696,309.065117 208.570974,308.853839 C207.89198,308.811583 207.188519,308.871949 206.503409,309.004752 C206.485057,308.902131 206.460589,308.811583 206.442238,308.708963 C205.916171,305.901983 205.322817,303.119149 204.649941,300.336315 C203.983181,297.511225 203.69568,294.655953 203.096208,291.824827 C202.453917,288.740167 201.689285,285.673617 200.875717,282.631213 C200.019329,279.443933 199.083419,276.262689 198.318787,273.057299 C197.578623,269.91831 196.887396,266.761212 196.147232,263.622224 C194.685256,257.446868 193.088704,251.313768 191.223002,245.253105 C189.883366,240.918887 188.904637,236.554486 188.048249,232.099537 C187.087872,227.143557 186.060206,222.21776 184.24344,217.503241 C183.650086,215.94582 182.885454,214.696261 181.380658,213.820966 C180.426397,213.27768 179.337561,213 178.242608,213 C177.692073,213 177.135421,213.066402 176.59712,213.211278" id="Fill-189"></path>
            <path d="M284.701213,108.00601 C283.292599,108.072126 281.902359,108.426743 280.561114,108.805402 C279.128003,109.226134 277.750012,109.815159 276.421016,110.48232 C276.304652,110.47631 276.200537,110.470299 276.090298,110.470299 C274.920537,110.518383 273.744651,110.632582 272.599387,110.776833 C268.863499,111.221607 265.158234,111.810632 261.471342,112.489814 C254.318036,113.824136 247.403581,115.96386 240.372764,117.748967 C236.808359,118.638515 233.219458,119.413864 229.679551,120.285381 C226.280506,121.102804 222.905958,121.998362 219.513037,122.863869 C212.623081,124.648975 205.708627,126.41004 198.72068,127.888613 C191.187661,129.463354 183.599522,130.683478 175.99301,131.927643 C174.345545,132.186093 172.74095,133.616582 171.926404,135.004999 C171.019992,136.531656 170.756643,138.406919 171.234347,140.143942 C171.71205,141.81485 172.863439,143.269382 174.370042,144.134888 C176.091,145.126614 177.738466,145.126614 179.630907,144.82008 C186.331007,143.714156 193.073978,142.872691 199.74958,141.532359 C206.902886,140.101869 214.007197,138.406919 221.093134,136.645854 C228.197445,134.860748 235.25276,133.081651 242.381569,131.410743 C249.106166,129.842013 255.65928,127.540007 262.432873,126.223716 C267.081297,125.298105 271.760343,124.366484 276.463887,123.675281 C276.794605,123.645228 277.131447,123.621187 277.480538,123.591134 C279.103506,123.500977 280.156904,123.242528 281.590015,122.539304 C282.135087,122.262823 282.66791,121.926237 283.219107,121.625714 C283.978533,121.361253 284.756332,121.132856 285.55863,120.958553 L285.607625,120.958553 C286.495664,121.090783 287.395951,121.042699 288.290115,120.802281 C289.894709,120.351496 291.303322,119.299666 292.142366,117.887207 C293.820453,115.092343 293.030405,110.656623 289.821216,109.17805 C288.271741,108.480837 286.771262,108 285.056428,108 C284.93394,108 284.817576,108.00601 284.701213,108.00601 Z" id="Fill-191"></path>
            <path d="M20.2017959,117.210913 C19.2453676,118.310228 18.693582,119.17617 18.2337607,120.570273 C17.8291179,121.841548 18.0191774,123.254076 18.2828083,124.525351 C18.9081653,127.331983 21.7835813,129.297239 24.560902,129.297239 C25.7564375,129.297239 26.8232229,128.990168 27.7428656,128.455864 C27.7919132,128.474288 27.8409608,128.492712 27.8900084,128.504995 C28.7544725,128.818208 29.6250675,128.805925 30.5079244,128.848915 C33.2055428,129.346371 35.8908993,130.126332 38.5946487,130.691343 C41.8256598,131.385324 45.1057186,132.011749 48.3673844,132.539912 C55.1420852,133.663793 61.8738693,134.867512 68.6240463,136.089656 C75.3313066,137.287234 81.9649955,138.773459 88.5986844,140.333381 C92.0933264,141.150191 95.5940994,141.942435 99.0887414,142.710113 C102.344276,143.42866 105.673383,143.840135 108.910525,144.558682 C111.540703,145.111411 114.054393,145.731695 116.641654,146.499373 C118.928499,147.181071 121.190819,148.243538 123.397962,149.2016 C123.085283,149.066489 122.760343,148.94366 122.441533,148.802407 C123.471533,149.256873 124.501533,149.692914 125.549926,150.14738 C127.156235,150.865926 128.615401,151.271261 130.387246,150.792229 C131.944507,150.36233 133.311709,149.306004 134.15165,147.893476 C134.985459,146.425676 135.230697,144.675369 134.770876,143.047891 C134.390757,141.629222 133.287186,139.903481 131.877067,139.277056 C128.28433,137.69871 124.691592,136.138788 121.025284,134.744684 C118.057904,133.639227 114.918857,132.871549 111.804334,132.324962 C104.931538,131.053687 98.1077892,129.635018 91.2840409,128.025964 C84.3621973,126.398486 77.4158299,124.912261 70.4204149,123.640986 C64.0258331,122.486398 57.6067275,121.430073 51.2121457,120.306192 C47.429349,119.655201 43.6465522,118.96122 39.8882793,118.119844 C36.6082206,117.401297 33.3710785,116.418669 30.0174483,116.007194 C30.5937577,116.080891 31.1700671,116.154588 31.7218527,116.222144 C30.4956625,115.890507 29.3736985,115.362344 28.1045917,115.17196 C27.4301871,115.061414 26.7067348,115 25.9771517,115 C23.8374498,115 21.6119146,115.540445 20.2017959,117.210913" id="Fill-193"></path>
            <path d="M1.5704122,157.713667 C1.57653045,157.665191 1.58264869,157.616714 1.58876693,157.574298 C1.61935815,157.337976 1.64994937,157.101654 1.68665884,156.871391 C1.64383113,157.15013 1.60712167,157.428869 1.5704122,157.713667 M61.2844726,59.8763955 C61.0091517,60.0945388 60.7338307,60.300563 60.4462732,60.5065872 C60.7277125,60.2945035 61.0030334,60.0884792 61.2844726,59.8763955 M209.486695,37.6863739 C209.725306,37.789386 209.963918,37.8984577 210.208647,37.9954103 C209.963918,37.8984577 209.719188,37.7954456 209.486695,37.6863739 M160.34496,12.0302977 C153.749493,12.2423814 147.202972,12.836216 140.631978,13.3573361 C133.651061,13.9026944 126.865929,15.2721495 120.099151,16.9991174 C113.454738,18.7079066 107.024464,20.9559945 100.618663,23.3676899 C94.0721417,25.8520997 87.5745667,28.5061766 81.3094849,31.675314 C75.26466,34.7293203 69.3850276,38.0681247 63.7929526,41.879573 C60.6604118,44.0064702 57.6747087,46.3757488 54.6890057,48.6965512 C52.0336879,50.7083172 49.427316,52.7685595 46.894363,54.8954567 C44.5082479,56.9314609 42.2567341,59.1128939 40.0113386,61.2882674 C37.6680512,63.5363553 35.330882,65.8086814 33.1038413,68.1537219 C28.3010198,73.2619109 23.7123369,78.6124814 20.102573,84.6477794 C16.8537855,90.0953025 14.082221,95.8215642 11.1393457,101.432695 C9.51801103,104.510939 7.96397708,107.680076 6.88716615,110.994643 C5.85930117,114.145602 5.4310241,117.43593 5.11899366,120.726258 C4.8314362,123.943872 8.08022371,126.664603 11.1393457,126.664603 C12.7178526,126.664603 14.2718865,126.028352 15.3731704,124.937636 C16.590701,123.731788 16.9945051,122.356273 17.1413429,120.726258 C17.1902889,120.205138 17.2392348,119.690077 17.294299,119.162898 C17.6369207,117.132953 18.1814444,115.133306 18.8972789,113.200314 C21.081492,108.364804 23.8836477,103.820152 26.3676547,99.1361305 C28.9679084,94.2642634 31.7211181,89.5499442 35.0066151,85.084066 C38.8121628,80.4242827 43.0337511,76.1280715 47.371586,71.9651702 C51.8195493,67.6992567 56.426587,63.657546 61.3150639,59.8521573 C66.6930003,55.8165062 72.0648184,51.84751 77.9199778,48.5268842 C84.0382217,45.0184127 90.3889589,41.9280493 96.8742974,39.1770198 C109.661427,34.0506522 122.723878,29.4029879 136.367562,27.2215549 C142.43686,26.4944106 148.591813,26.0823621 154.703939,25.7854448 C157.787534,25.640016 160.871129,25.5248848 163.979196,25.6157778 C166.946545,25.7006113 169.871065,25.9732905 172.832295,26.306565 C176.013782,26.7852683 179.195269,27.3063884 182.315573,28.1001877 C185.656135,28.9303441 188.91104,29.9968225 192.184301,31.1057176 C198.369845,33.178079 204.384079,35.5837149 210.404431,38.0863033 C216.106634,40.5343559 221.643645,43.2369091 226.911453,46.5635944 C232.215971,49.914518 237.459306,53.4108703 242.49462,57.1738423 C246.618317,60.639897 250.442219,64.4271071 254.223294,68.2446149 C257.882004,71.940932 261.198092,75.8311543 264.404052,79.8728649 C266.355772,82.4602869 268.301373,85.0477088 270.191911,87.6775475 C272.125276,90.3558625 273.777201,93.197785 275.374063,96.0821242 C276.977043,98.9967611 278.292465,102.093184 279.699662,105.098714 C281.082385,107.976994 282.446753,110.855273 283.774412,113.763851 C289.299186,126.97364 293.123089,140.680311 295.160464,154.847506 C296.482005,166.29397 296.928636,177.825267 295.741697,189.295969 C294.157072,199.500228 291.30597,209.437868 287.555487,219.060411 C283.095287,229.040467 277.411438,238.517582 270.834326,247.237255 C271.146357,246.837325 271.458387,246.437396 271.79489,246.031407 C265.76842,253.678542 259.797014,261.440807 252.956817,268.403214 C249.469418,271.954103 245.884128,275.408038 242.158117,278.698366 C239.043931,281.425158 235.740079,284.000461 232.448464,286.545466 C229.29145,288.854149 225.926416,290.865915 222.585855,292.877681 C218.810898,295.162126 214.956405,297.143595 210.912245,298.882682 C205.258988,301.021698 199.483366,302.82744 193.524196,304.00299 C187.038858,305.263373 180.602465,306.838853 174.055944,307.838676 C167.699089,308.638535 161.31776,309.595942 154.918077,309.777728 C151.907901,309.868621 148.873252,309.656537 145.887549,309.541406 C142.675471,309.383858 139.487866,309.196012 136.300261,308.868797 C132.984173,308.317379 129.704794,307.596295 126.382588,306.984281 C122.895189,306.317732 119.383317,305.729957 115.895918,304.996754 C112.426873,304.26355 108.939474,303.597001 105.543849,302.603237 C102.215524,301.64583 98.9667368,300.47634 95.7485405,299.197777 C90.4746143,296.858796 85.1333874,294.416803 80.1164274,291.574881 C74.7935552,288.563291 69.5991661,285.279023 64.6433885,281.685718 C60.9907969,278.668069 57.5706986,275.341383 54.2301374,271.972281 C50.9691134,268.675894 47.7998631,265.221958 44.838633,261.640772 C40.1153488,255.126771 36.3771017,247.958339 32.2228141,241.086825 C29.9284727,237.323853 27.7993238,233.512405 25.7925398,229.604004 C24.0121308,226.101592 22.1766577,222.641597 20.53085,219.066471 C18.9401066,215.03082 17.6246842,210.886097 16.6885929,206.644422 C15.6852009,202.063412 14.5900352,197.482403 13.8252547,192.865036 C12.6566701,182.678956 12.4914776,172.226256 13.8191365,162.052295 C13.7763088,162.409807 13.7151263,162.779439 13.6661804,163.143011 C14.3024778,158.568061 14.8714744,153.987052 15.3976434,149.387864 C15.3731704,149.587829 15.3425792,149.793853 15.3181062,149.999877 C15.4894171,148.52135 15.4159981,147.212491 14.583917,145.812738 C13.7701905,144.419044 12.3874674,143.352566 10.7844875,142.928399 C7.48675405,142.025528 3.8280442,143.988817 2.97149005,147.327622 C2.51262176,149.05459 2.37190215,150.854272 2.20670957,152.605478 C2.05375347,154.035528 1.87020615,155.459519 1.68665884,156.871391 C1.71113181,156.677486 1.74172303,156.489641 1.77231425,156.301795 C1.71113181,156.719903 1.64994937,157.14407 1.58876693,157.574298 C1.5704122,157.707607 1.55817571,157.840917 1.53370274,157.980286 L1.5704122,157.713667 C1.15437162,160.54953 0.744449276,163.379333 0.432418837,166.239434 C0.102033666,169.244964 0.0286147397,172.29897 0.00414176409,175.328739 C-0.0448041871,181.624597 0.340645178,187.968931 1.12989864,194.216313 C1.58264869,197.742963 2.4208481,201.17872 3.16115562,204.656894 C3.8280442,207.850269 4.47657805,211.098181 5.38207815,214.24308 C6.40994313,217.842444 7.62747366,221.393333 9.18150761,224.82303 C10.545876,227.901275 12.1488559,230.882566 13.6784169,233.888096 C15.1590319,236.802733 16.6641199,239.711311 18.2426268,242.577471 C19.9129074,245.558763 21.7300258,248.449162 23.4737254,251.381977 C26.7714588,256.944632 29.7816348,262.792084 33.6544832,267.997226 C35.7591591,270.81491 38.1269195,273.347796 40.4640887,275.953397 C42.6666565,278.38933 44.936525,280.734371 47.3042853,283.030935 C49.6230998,285.303261 51.9174412,287.618004 54.4259212,289.678246 C57.2892594,292.047525 60.3300266,294.180481 63.4319763,296.210426 C68.8099126,299.761314 74.3530416,303.009226 80.1653733,305.778434 C86.3753909,308.735487 92.5670537,311.644065 99.1625206,313.728545 C105.592795,315.764549 112.310627,316.970397 118.95504,318.158066 C125.880892,319.388152 132.788389,321.042405 139.818251,321.490811 C146.841995,321.921038 153.890212,322.296729 160.920075,321.660478 C164.3157,321.327204 167.705207,320.806083 171.100832,320.406154 C174.998154,319.951689 178.871002,319.454807 182.719378,318.721603 C185.894746,318.133828 189.05176,317.32791 192.233247,316.685599 C195.555453,316.000871 198.896014,315.388858 202.175393,314.558702 C208.936053,312.855972 215.458101,310.298848 221.723182,307.335735 C224.659939,305.966279 227.413149,304.190835 230.160241,302.512344 C232.693194,300.924745 235.25062,299.385623 237.685681,297.634417 C240.506191,295.622651 243.185982,293.398801 245.908601,291.217368 C248.368135,289.254079 250.809314,287.242313 253.152601,285.109356 C258.028842,280.685894 262.568579,275.977635 266.985951,271.07547 C271.531806,266.058174 275.661621,260.634889 279.846499,255.332795 C284.172098,249.794379 288.093892,244.068117 291.556818,237.960105 C295.06869,231.785437 298.317478,225.531996 300.734184,218.860447 C305.512533,205.674896 308.785793,191.90157 308.981577,177.861625 C309.171242,164.039823 307.904766,150.145306 304.796698,136.674957 C303.340556,130.354861 301.572384,124.131717 299.345343,118.047943 C296.861336,111.206727 293.900106,104.601832 290.865457,98.0029972 C288.112247,92.0101159 285.389628,86.1202467 281.565726,80.7212 C277.338019,74.7586164 272.890056,68.8869258 268.136181,63.3242716 C265.982559,60.8156236 263.547498,58.4948212 261.179737,56.1740188 C258.885396,53.9259309 256.566581,51.677843 254.180466,49.5024695 C251.525148,47.0604764 248.514972,44.9335792 245.547624,42.8733369 C242.922897,41.0494165 240.316526,39.2497343 237.661208,37.4985283 C232.093606,33.856747 226.452585,30.42099 220.358814,27.7244964 C213.92854,24.8583358 207.430965,22.0406515 200.811025,19.6774324 C194.503115,17.4293444 188.189088,15.3206258 181.593621,13.9693493 C177.769718,13.1876691 173.829569,12.7150253 169.932248,12.3635722 C167.41765,12.1393693 164.87246,12 162.339507,12 C161.672619,12 161.011848,12.0060595 160.34496,12.0302977" id="Fill-195" opacity="0.340192522"></path>
            <path d="M129.878647,0.0182008089 C122.975966,0.0910040447 116.073286,0.27907907 109.170605,0.752300103 C102.795596,1.17698565 96.420587,1.72300991 90.045578,2.12949465 C86.8856842,2.31756967 83.7196547,2.62698342 80.5290824,2.66945198 C77.29556,2.71798747 74.0620377,2.71798747 70.7978367,2.69371972 C64.3798777,2.65125117 58.0232759,2.39037291 51.6482669,1.65020668 C48.512916,1.29832437 45.3714294,1.22552114 42.2053999,1.11024935 C39.070049,0.988910619 35.9040195,0.752300103 32.7625328,0.637028313 C29.9585106,0.539957332 27.1544884,0.655229122 24.3504661,0.776567848 C20.9021937,0.916107384 18,3.52489 18,7.08011468 C18,10.3987288 20.9021937,13.529268 24.3504661,13.3836615 C27.7067028,13.244122 31.0138538,13.1713187 34.3700905,13.335126 C37.3888628,13.4564647 40.4076351,13.7416108 43.4509502,13.8568825 C49.8750449,14.1420286 56.2255111,15.2583448 62.6741486,15.5192231 C69.0491576,15.8043691 75.4977952,15.9681764 81.8973471,15.7801014 C85.0388337,15.6830304 88.1557775,15.3978844 91.2665855,15.2340771 C94.5737365,15.0884706 97.8808874,14.8761278 101.194174,14.6395173 C114.514814,13.5960043 127.890675,13.0985155 141.266536,13.5050002 C147.69063,13.6930753 154.090182,13.7840793 160.514277,14.002489 C166.576364,14.2148318 172.638452,14.0449576 178.725082,14.0267568 C185.075548,14.002489 191.4751,14.0449576 197.776481,14.8518601 C201.034546,15.2826126 204.298747,15.6587626 207.581355,15.8468377 C210.83942,16.0167119 214.097485,16.0591804 217.361686,16.1562514 C223.761238,16.3200587 230.136247,16.9631539 236.511256,17.533446 C242.573344,18.0552025 248.635431,18.5041558 254.703654,19.2867905 C257.624255,19.6629406 260.575535,20.0694253 263.545221,20.3303036 C266.183579,20.5426464 268.840344,20.6093827 271.503245,20.6579182 C274.307267,20.7064536 277.111289,20.6579182 279.915312,20.5669141 C280.541155,20.5365794 281.142455,20.5244456 281.749891,20.5305125 C281.848062,22.6903418 281.848062,24.868372 281.878741,27.0342682 C281.903284,30.1890751 281.878741,33.3378151 281.786705,36.4926219 C281.639448,43.2451221 281.185405,50.0218899 280.731362,56.7561892 C280.277319,63.1264724 279.749647,69.5028224 279.626933,75.9034402 C279.510354,82.4678653 279.485811,89.0322904 279.485811,95.5967155 C279.485811,102.185408 279.363097,108.774101 279.510354,115.338526 C279.651476,121.781613 279.98894,128.230766 280.154604,134.673852 C280.516612,147.899773 280.467526,161.101427 280.369355,174.321281 C280.320269,180.885706 280.038026,187.456198 279.725104,194.020623 C279.412183,200.536513 279.485811,207.100938 279.412183,213.641095 C279.338554,220.490666 279.338554,227.340238 279.60239,234.189809 C279.866226,240.535824 280.038026,246.863639 280.038026,253.215721 C280.013483,261.393951 279.964397,269.572181 279.964397,277.744344 C279.964397,281.445176 279.939854,285.115672 279.939854,288.816503 C279.939854,291.7529 279.958262,294.780302 280.240504,297.728833 C280.154604,298.123184 280.105519,298.523601 280.105519,298.930086 C280.105519,300.568159 280.780448,301.824015 281.829655,303.031335 C282.216205,303.504556 282.76842,303.81397 283.271548,304.171919 C285.25952,305.591582 288.830507,305.118361 290.388979,303.267946 C291.180486,302.345771 291.659072,301.775479 291.996536,300.616694 C292.223558,299.767323 292.186744,299.002889 292.088572,298.208121 C292.106979,298.335526 292.119251,298.450798 292.137658,298.578204 C291.560901,292.699343 291.732701,286.80228 291.781786,280.899151 C291.849279,274.164852 291.757244,267.43662 291.824736,260.708387 C291.898365,254.429108 292.045622,248.16803 291.849279,241.888751 C291.634529,235.063448 291.321608,228.262412 291.370693,221.461376 C291.419779,214.872683 291.493408,208.283991 291.585443,201.695298 C291.683615,195.15514 292.088572,188.639251 292.376951,182.099093 C292.640787,175.625672 292.567158,169.109783 292.567158,162.618161 C292.567158,155.956665 292.591701,149.295169 292.499665,142.63974 C292.426037,136.12385 292.186744,129.601894 291.922908,123.086004 C291.659072,116.545847 291.683615,109.981422 291.683615,103.416996 C291.683615,90.3791503 291.542493,77.2988356 292.327865,64.2670564 C292.714415,57.7693676 293.26663,51.2777457 293.555008,44.7861239 C293.861794,38.2216988 294.058137,31.6572737 293.984508,25.0685809 C293.959966,23.4062403 293.91088,21.7499667 293.837251,20.0936931 C293.745216,17.5577137 293.745216,14.6152496 292.327865,12.4129517 C290.775529,9.9740433 288.229207,9.09433754 285.547899,8.66965199 C283.124291,8.31170275 280.84794,8.28743501 278.430468,8.28743501 C275.601903,8.28743501 272.797881,8.17216322 269.969316,8.05082449 C267.570251,7.94768657 265.177322,7.77174542 262.796664,7.47446554 C256.611862,6.56442509 250.433196,5.63618384 244.205444,5.06589182 C237.971557,4.47133206 231.762212,3.81003601 225.53446,3.28827948 C219.159451,2.74225521 212.759899,2.86359394 206.360347,2.39037291 C203.145232,2.15376239 199.960796,1.72300991 196.74568,1.37112761 C193.413986,0.988910619 190.082293,0.825103339 186.726056,0.752300103 C180.37559,0.612760568 174.025124,0.776567848 167.674658,0.825103339 C161.686199,0.849371084 155.667061,0.418618606 149.678602,0.327614561 C143.923301,0.242677453 138.192542,0 132.467919,0 C131.602783,0 130.737647,0.00606693631 129.878647,0.0182008089 Z" id="Fill-197" opacity="0.340192522"></path>
            <path d="M21.7897807,6.21195475 C18.4762841,7.09005298 16.5231307,10.4692172 17.4279462,13.6848735 C17.708751,14.714368 17.9521151,15.7438625 18.1393183,16.7975803 C18.6135664,22.7444249 18.4950044,28.7215488 18.3514819,34.6926167 C18.1829991,41.3177165 18.0831574,47.9185929 18.0581969,54.5376368 C18.0145162,67.4305412 18.0831574,80.2992222 18.0831574,93.1921266 C18.0831574,99.4841546 18.0145162,105.751959 17.6463499,112.02582 C17.2532232,118.790204 16.9412178,125.554588 16.8413761,132.318973 C16.7415344,138.399046 16.6728933,144.454896 16.4544895,150.534969 C16.1861649,157.226683 16.1362441,163.90023 15.8179986,170.573776 C15.5496741,176.932419 15.0879062,183.272894 14.9880645,189.613368 C14.8944629,196.238468 14.9381436,202.863568 14.6261383,209.464444 C14.2829324,216.083488 13.8648453,222.708588 13.7213228,229.357911 C13.5528399,235.649939 13.2845153,241.941967 13.1097924,248.258219 C12.9662699,253.647925 12.9912303,259.043687 12.6729849,264.415226 C12.3547394,270.138004 11.8180903,275.885006 12.0614544,281.61384 C12.2611378,286.815815 12.8227474,291.993566 13.1097924,297.201597 C13.2345945,299.799557 13.3094758,302.403572 13.3781169,305.007588 C13.4529982,306.636611 13.6464415,308.271691 13.8898057,309.900715 C14.1144495,311.348063 14.4763757,312.813578 15.3562308,314.018692 C16.304727,315.344924 17.4029857,316.362306 19.0628541,316.786216 C20.6416011,317.210125 22.4013112,316.998171 23.8365357,316.198798 C26.607143,314.618222 27.4495574,311.46918 26.3949794,308.713768 C26.2327367,308.138462 26.1079345,307.563156 26.0080928,306.981795 C25.7522484,304.498896 25.8021693,301.991775 25.7148078,299.496764 C25.5900057,296.347723 25.3466415,293.22896 25.1282378,290.079918 C24.6664699,283.999845 24.5167073,277.992442 24.8848736,271.912368 C25.2967207,265.456832 25.5650452,258.99524 25.6898474,252.515481 C25.8146495,246.247676 26.2015361,239.955648 26.3263383,233.687844 C26.4948211,226.96585 26.6882644,220.274136 27.1063516,213.576366 C27.5181986,207.023937 27.5681195,200.471507 27.6180403,193.919078 C27.6617211,187.463542 27.9799665,181.026173 28.3231724,174.594861 C28.6663782,167.993984 28.7849403,161.368885 28.9534232,154.768008 C29.1281461,148.645544 29.4214312,142.517024 29.4651119,136.412727 C29.5150328,129.721013 29.6897557,123.07169 30.0267215,116.398143 C30.3699274,110.057668 30.7131332,103.741417 30.7131332,97.3827747 C30.7380937,90.8545685 30.7131332,84.3445299 30.6881728,77.8163237 C30.6132915,67.0308551 30.5883311,56.2211631 30.6881728,45.4356944 C30.7380937,40.3245571 30.9065765,35.2134198 30.9564974,30.1022825 C31.0064182,23.5256296 31.2747428,16.8581388 29.4900723,10.4449938 C28.7412595,7.78041986 26.1453752,6 23.4059683,6 C22.8693192,6 22.3264299,6.0726702 21.7897807,6.21195475" id="Fill-199" opacity="0.340192522"></path>
            <path d="M41.9542764,320.133793 C42.3460293,320.07997 42.7439035,320.032127 43.1417776,319.978303 C42.7439035,320.026146 42.3460293,320.07997 41.9542764,320.133793 M211.552712,303.526274 C208.228933,303.639901 204.929639,303.920979 201.605859,304.082449 C198.349413,304.2499 195.074603,304.202057 191.799792,304.178135 C185.152234,304.178135 178.480191,304.130292 171.832633,304.082449 C158.635454,304.016665 145.46276,303.9449 132.290066,303.873136 C125.618023,303.849214 118.94598,303.825293 112.273937,303.78343 C105.675348,303.735587 99.1012428,303.568136 92.527138,303.78343 C89.1054206,303.897057 85.7326722,304.178135 82.3415605,304.387449 C79.1340829,304.596762 75.9327265,304.644605 72.7497335,304.71637 C66.1266596,304.87784 59.5525549,305.254604 53.0029347,306.002152 C47.7081483,306.61215 42.4378464,307.437443 37.1675446,308.196952 C33.2561359,308.687343 29.3202427,309.058127 25.3843494,309.506655 C23.6153398,309.692047 22.182993,310.062831 20.8669478,311.324691 C19.6672043,312.496846 19,314.081647 19,315.744193 C19,317.376837 19.6672043,318.99154 20.8669478,320.133793 C21.9381474,321.210262 23.7806106,322.143201 25.3843494,321.981731 C31.4810052,321.299968 37.577661,320.719871 43.6743168,319.900558 C43.4968037,319.93046 43.3192907,319.954382 43.1417776,319.978303 C49.440431,319.164971 55.7390845,318.375561 62.086707,317.986836 C68.5934792,317.586151 75.1186148,317.681837 81.6192659,317.42468 C88.1015535,317.143602 94.5348721,316.581446 101.011039,316.701054 C107.615749,316.814681 114.189854,316.934289 120.763959,316.934289 C134.157014,316.982132 147.543948,317.143602 160.912518,317.143602 C174.036243,317.143602 187.208937,317.448602 200.338783,317.047916 C203.778864,316.934289 207.200582,316.605368 210.640662,316.443898 C213.939957,316.258506 217.263736,316.234584 220.563031,316.138898 C227.284043,315.977428 234.005055,315.953506 240.719946,315.929585 C247.055326,315.929585 253.372343,316.234584 259.683239,316.419976 C266.141042,316.605368 272.641693,316.814681 279.026043,317.562229 C279.49737,317.616052 279.962577,317.669876 280.421663,317.723699 C283.886228,318.291836 287.626245,319.338402 290.815359,317.472523 C293.276057,316.025271 294.543133,313.124786 293.777991,310.36783 C293.325026,308.80097 292.247706,307.449404 290.815359,306.630092 C289.725796,306.002152 288.630112,305.786858 287.473216,305.81676 C282.025401,304.979506 276.577586,304.297743 271.037954,304.040586 C264.512819,303.711665 257.981562,303.502352 251.431942,303.269117 C246.222851,303.077745 240.989276,303 235.761823,303 C227.675796,303 219.595891,303.197353 211.552712,303.526274" id="Fill-201" opacity="0.337402344"></path>
            <path d="M132.097676,131.65619 C132.342334,131.843613 132.580876,132.031036 132.819418,132.230552 C132.57476,132.037082 132.336218,131.849659 132.097676,131.65619 M43.867723,68.1317829 C42.0266682,71.2031066 43.2744262,74.7701953 46.1124642,76.6565201 C46.8709054,77.146239 47.5926478,77.6540957 48.3205067,78.1498606 C50.4123364,79.8185325 52.4307686,81.5476636 54.4553173,83.2949325 C56.7245244,85.2296246 59.0854784,87.0252607 61.4525489,88.8692642 C66.4741635,92.7628321 71.4896617,96.6624459 76.4562282,100.676932 C81.1903691,104.503995 85.8939278,108.373379 90.4568078,112.412049 C92.8238783,114.491843 95.2154146,116.52327 97.674232,118.506329 C100.126933,120.489389 102.732545,122.303163 105.26476,124.183441 C107.637947,126.136271 109.93162,128.137469 112.176361,130.247492 C114.518966,132.393791 116.623029,134.848432 118.794372,137.139833 C121.088045,139.576336 123.791521,141.559395 126.464415,143.542455 C129.070027,145.452963 131.626708,147.865282 134.776686,148.760077 C137.578025,149.564184 140.654605,148.288496 142.116439,145.809672 C142.997209,144.346561 143.235751,142.526741 142.758667,140.870161 C142.281583,139.147076 141.205086,138.040674 139.7983,137.049144 C137.168222,135.211187 134.519794,133.391367 131.926415,131.52318 C130.054778,129.99961 128.323819,128.367213 126.629559,126.607853 C124.794621,124.697344 123.026964,122.714285 121.06358,120.918648 C118.390686,118.433778 115.662744,116.003321 112.702377,113.832839 C110.561616,112.224626 108.396388,110.634551 106.225045,109.068659 C100.261495,104.30448 94.6221179,99.1352243 88.6646847,94.3468613 C82.4564766,89.3468913 76.1993368,84.4134264 69.8504501,79.5827419 C67.2693035,77.5754989 64.7126227,75.5622099 62.2415724,73.4461403 C59.1099442,70.7798927 55.9599667,68.1559665 52.4919332,65.8887492 C51.5805805,65.278112 50.5285492,65 49.4704014,65 C47.2440096,65 44.9870354,66.2333662 43.867723,68.1317829" id="Fill-203" opacity="0.342773438"></path>
            <path d="M256.974205,67.8642793 C254.895616,70.1508873 252.774232,72.3650961 250.548919,74.5310387 C248.568146,76.4435842 246.489557,78.2595974 244.508783,80.1661096 C240.162087,84.3592298 236.004909,88.6730153 231.44424,92.6549711 C227.146451,96.4257627 222.7753,100.154321 218.385809,103.828581 C214.33256,107.18911 210.267085,110.555673 206.103793,113.795537 C202.851412,116.106278 199.550124,118.30842 196.267176,120.534695 C194.714347,121.572417 193.185973,122.658405 191.682053,123.768526 C190.037522,124.969146 188.056749,126.055134 186.791255,127.65395 C185.739733,128.999368 185,130.175855 185,131.967735 C185,133.572584 185.641917,135.123134 186.791255,136.257388 C189.248881,138.682761 192.892525,138.453497 195.423513,136.329787 C200.381559,132.854625 205.431308,129.524262 210.456603,126.1215 C216.068794,122.350709 221.198018,117.898158 226.455626,113.680905 C231.517602,109.62655 236.463421,105.36103 241.354219,101.095511 C246.3734,96.7093262 250.860707,91.8103138 255.733165,87.285364 C259.340128,83.9369011 262.824822,80.5220723 266.144451,76.8900459 C268.510374,74.2957414 268.724347,70.4103178 266.144451,67.8642793 C264.927865,66.6515928 263.179404,66 261.443171,66 C259.7803,66 258.129656,66.5972934 256.974205,67.8642793" id="Fill-205" opacity="0.342773438"></path>
            <path d="M133.516666,220.742798 C128.548849,225.12693 124.003174,229.884949 119.585977,234.805791 C115.13819,239.823119 110.574161,244.743961 106.10802,249.719076 C97.3837499,259.446181 88.800194,269.293894 80.5592461,279.400916 C78.1915796,282.31965 75.823913,285.238385 73.5541345,288.253606 C72.6731423,289.459695 71.7860321,290.659753 70.9295119,291.859811 C70.1831158,292.921169 69.3510676,293.958405 68.8004474,295.134342 C68.1091133,296.617831 67.7481512,298.028954 68.2008833,299.681296 C68.6107894,301.140663 69.6141416,302.437208 70.9478659,303.191013 C72.3366522,303.993062 74.0068666,304.204128 75.560839,303.800088 C77.1392833,303.353835 78.1915796,302.388964 79.1215158,301.092419 C81.0242142,298.432994 82.8351426,295.749447 84.8296111,293.174448 C92.5627648,283.580013 100.681353,274.293131 108.806058,265.054492 C113.204901,260.037164 117.719986,255.134414 122.186127,250.213572 C126.560498,245.359066 130.818627,240.414103 135.382656,235.770662 C137.603491,233.533367 139.873269,231.39256 142.216464,229.318088 C144.700373,227.104915 144.486243,222.980092 142.216464,220.742798 C141.017336,219.554801 139.506189,219 137.982807,219 C136.392127,219 134.78921,219.609075 133.516666,220.742798" id="Fill-207" opacity="0.342773438"></path>
            <path d="M180.821562,214.806876 C178.414191,217.169714 178.371528,221.22461 180.821562,223.61162 C182.320836,225.074042 183.746976,226.542506 185.093885,228.143918 C188.756746,233.250307 191.901565,238.689065 195.345021,243.934444 C197.106363,246.605479 199.081018,249.131479 200.988631,251.699782 C203.012042,254.461462 205.011074,257.229185 206.912593,260.057339 C210.654684,265.580699 213.982342,271.32161 217.267338,277.104822 C220.3634,282.531494 223.27053,288.199888 226.890729,293.318363 C227.481906,294.170435 228.079178,294.974163 228.719112,295.771847 C229.413898,296.648091 230.029454,297.191967 230.980213,297.899006 C232.412447,298.986757 234.576034,299.246609 236.245957,298.77525 C238.580193,298.158857 239.933197,296.551402 240.74378,294.381942 C241.45685,292.375645 240.603604,289.873817 239.146992,288.435567 C238.951965,288.230103 238.726464,288.042768 238.48268,287.867519 C236.904175,285.734318 235.557266,283.437953 234.198168,281.159718 C232.528244,278.355737 230.913172,275.52154 229.316384,272.66317 C226.031389,266.879958 222.673258,261.193435 219.101816,255.597558 C215.627887,250.122542 211.50793,245.046368 207.747555,239.758687 C203.914044,234.374317 200.629049,228.63945 196.917431,223.188606 C194.796506,220.118729 192.370851,217.405394 189.701411,214.806876 C188.470299,213.610349 186.849133,213 185.234061,213 C183.631178,213 182.028295,213.598263 180.821562,214.806876" id="Fill-209" opacity="0.342773438"></path>
        </g>
    </g>
</svg>