<?xml version="1.0" encoding="UTF-8"?>
<svg width="800px" height="1000px" viewBox="0 0 800 1000" version="1.1" xmlns="http://www.w3.org/2000/svg" xmlns:xlink="http://www.w3.org/1999/xlink">
    <!-- Generator: Sketch 51.1 (57501) - http://www.bohemiancoding.com/sketch -->
    <title>workingonlaptop_DL</title>
    <desc>Created with Sketch.</desc>
    <defs></defs>
    <g id="workingonlaptop_DL" stroke="none" stroke-width="1" fill="none" fill-rule="evenodd">
        <g id="workingonlaptop" transform="translate(263.000000, 235.000000)" fill="#000000">
            <path d="M158.869502,47.8366219 C160.73018,45.9865008 162.03323,43.6562247 162.659843,41.1430324 C163.361191,41.5202971 164.039543,41.9223316 164.714063,42.358663 C165.714345,43.2599063 166.649474,44.2030679 167.548195,45.209107 C169.127185,47.5050863 170.437899,49.9268205 171.61256,52.4533505 C173.4215,57.2644275 174.690057,62.2165024 175.519793,67.2867107 C175.931786,71.3242046 176.060175,75.3407394 175.703753,79.3801387 C174.935337,83.5167123 173.77409,87.5180041 172.266001,91.4526076 C169.868773,96.6962052 167.013562,101.638753 163.619884,106.320265 C160.983125,109.525109 158.124081,112.484159 154.941191,115.163119 C152.122388,117.16186 149.177113,118.886226 146.03638,120.355272 C141.481455,122.096786 136.815388,123.413402 132.009435,124.2632 C130.595243,124.358469 129.19638,124.400387 127.778356,124.36228 C127.268634,124.242241 126.760828,124.108865 126.253021,123.960245 C125.942589,123.796383 125.637905,123.624899 125.335138,123.443888 C124.513067,122.685548 123.740819,121.891006 122.99923,121.056451 C121.054237,118.131697 119.415844,115.052608 117.96141,111.864912 C115.786467,106.388858 114.125079,100.817536 113.109467,95.0137573 C112.772207,91.5097689 112.707055,88.0476989 112.977246,84.5303729 C113.577032,81.2645566 114.477669,78.1187791 115.654246,74.9996769 C118.08405,69.7236879 121.036991,64.7449377 124.468993,60.0500887 C126.70334,57.3558856 129.085238,54.7455191 131.624268,52.3104472 C133.117027,54.0252865 135.104177,55.296173 137.319362,55.9039883 C140.312543,56.7233004 143.577832,56.2984013 146.249084,54.7359922 C147.034746,54.1415145 147.812743,53.53751 148.600322,52.9354109 C148.899257,52.6362667 149.179029,52.3237848 149.441555,52.0017761 C152.975119,51.8207653 156.355383,50.3364766 158.869502,47.8366219 M157.620107,17.1638624 C154.052051,17.5525593 150.974555,18.4214113 147.751423,19.9438075 C146.613171,19.3950589 145.442343,18.9282416 144.235106,18.5719361 C139.377413,17.1352818 134.646194,17.2915227 129.773172,18.5928952 C129.234705,18.8177297 128.703904,19.0330373 128.171187,19.2559664 C126.367996,19.8218634 124.683613,20.618311 123.119954,21.6376877 C120.739972,23.0514775 118.597605,24.9720975 116.43416,26.6621669 C113.260851,29.133441 110.581934,32.1553689 107.841697,35.0725012 C102.99167,40.2379783 98.7989167,46.1922815 95.3036778,52.3314064 C91.6800503,58.7182302 88.6868688,65.7300177 86.8530181,72.837074 C85.8508197,76.7526238 85.4158311,80.8606167 85.1092312,84.8790569 C84.7489763,89.5472306 85.3410974,94.2058774 85.9926221,98.8130791 C86.9948206,105.920135 89.0241287,112.693751 91.808439,119.303504 C93.3356897,122.912288 94.8763542,126.492491 96.7638599,129.931697 C98.9119754,133.839625 101.562148,137.456031 104.57066,140.738995 C107.01771,143.402712 110.131615,145.702503 113.335584,147.362086 C115.274829,148.368125 117.520673,149.14933 119.624715,149.797158 C121.793909,150.465945 124.129817,150.547876 126.375661,150.847021 C130.334633,151.367188 134.699849,150.444986 138.561091,149.812401 C142.656116,149.141708 146.697486,147.891781 150.59897,146.491329 C157.012656,144.191539 163.062256,141.24392 168.517818,137.174035 C171.44393,134.992378 174.207162,132.707831 176.790266,130.139383 C179.814108,127.140319 182.395296,123.723978 184.955405,120.338123 C189.477753,114.368577 192.81586,107.655934 195.659574,100.76228 C198.67575,93.4399159 200.367798,85.8622314 200.921594,77.9587275 C201.161126,74.4966574 200.810452,70.977426 200.427202,67.5382205 C200.001795,63.6760212 199.3656,59.8576456 198.489874,56.0678507 C196.805491,48.7454868 193.879378,41.5317293 189.985559,35.1010818 C183.817153,24.9244631 172.783389,17.0019054 160.636284,17 C159.636002,17 158.631887,17.0552559 157.620107,17.1638624" id="Fill-17" transform="translate(143.000000, 84.000000) rotate(-22.000000) translate(-143.000000, -84.000000) "></path>
            <path d="M184.365616,154.082318 C181.736753,156.173217 180.768452,158.658625 180.490254,161.533397 C180.168924,164.783811 179.769958,168.022217 179.377462,171.270915 C177.136782,182.792301 174.667506,194.306825 171.469307,205.68756 C170.667062,208.528027 169.825998,211.356487 168.814565,214.155787 C167.744905,217.124898 166.507032,220.052843 165.437372,223.0271 C163.530961,228.3221 162.68774,233.819501 161.827268,239.277451 C161.430458,241.346052 160.958169,243.399215 160.440591,245.454094 C159.808715,247.95837 159.388183,250.464361 159,253.004658 C159.008626,254.807394 159.582275,256.481485 160.718789,258.04237 C161.831581,259.536359 163.330399,260.730178 165.217401,261.620397 C168.881419,263.323648 174.24913,263.591228 177.88727,261.620397 C179.631938,260.670144 182.006325,259.236189 182.925025,257.613555 C183.632381,256.361417 184.43247,255.135008 184.768895,253.78167 C185.116104,252.382019 185.443903,250.966932 185.756606,249.553559 C186.513563,246.126475 186.996636,242.671946 187.512057,239.220847 C188.579561,233.834938 190.386769,228.699457 192.580004,223.515948 C195.267095,217.17121 197.093712,210.713265 198.829754,204.166126 C202.562782,190.095868 205.577672,175.871236 206.975132,161.533397 C207.236077,158.859311 205.409459,155.924505 203.093299,154.082318 C200.624023,152.118348 197.229576,151 193.733771,151 C190.229339,151 186.841362,152.118348 184.365616,154.082318" id="Fill-19" transform="translate(183.000000, 207.000000) rotate(-15.000000) translate(-183.000000, -207.000000) "></path>
            <path d="M108.967955,236.422805 C106.887858,237.005869 104.806137,237.60405 102.732536,238.219507 C100.944724,238.742106 99.205627,239.502249 97.4178155,240.01621 C92.4700756,241.432841 89,248.233101 89,254.728872 C89,258.752017 90.2178552,262.65639 92.3564091,265.509087 C94.3601869,268.173908 97.5574629,270.2751 100.468949,269.970611 C102.066775,269.810808 103.658106,269.599177 105.187732,268.951327 C106.283802,268.482716 107.3409,267.847824 108.394751,267.204293 C110.5057,266.23036 112.688097,265.509087 114.854255,264.800772 C117.436108,263.958567 120.040695,263.245933 122.668014,262.690942 C129.510737,261.749401 136.484988,262.349741 143.321216,263.248092 C146.59481,263.677833 149.873277,264.116211 153.153367,264.545951 C156.76309,265.027519 160.377684,265.465897 164.006893,265.642976 C168.020944,265.845969 172.080461,265.416229 176.083146,265.120378 C179.038474,264.902268 181.670665,263.703747 183.802724,260.868325 C185.838978,258.160315 187,254.441658 187,250.602071 C187,243.020072 182.032774,235.656183 176.083146,236.085923 C173.00116,236.31267 169.91755,236.507025 166.829069,236.61716 C163.308656,236.742411 159.801233,236.321308 156.298681,235.88293 C153.153367,235.494221 150.012924,235.06448 146.874105,234.643378 C141.950722,233.984731 137.041954,233.537715 132.107204,233.133889 C131.03062,233.04319 129.949165,233 128.867709,233 C122.195486,233 115.463183,234.608826 108.967955,236.422805" id="Fill-21" transform="translate(138.000000, 251.500000) rotate(-1.000000) translate(-138.000000, -251.500000) "></path>
            <path d="M82.4788739,272.508351 C80.7606069,283.119114 85.37983,356.048082 82.4788739,362.899019 C81.3436319,365.580022 77.2502116,366.501472 75.1258128,370.199283 C73.9060843,372.32239 73.3673524,376.929557 75.1258128,380.108524 C76.7496254,383.055248 87.331166,382.721221 90.440124,383.628889 C96.6801465,385.450616 104.286744,380.335438 105.715619,373.319124 C106.483312,369.530783 106.609921,365.589034 106.98372,361.723989 C107.805005,356.006677 109.349449,321.007991 111.617054,256.727931 C112.322448,253.165442 112.135549,249.735055 110.361011,246.524128 C108.72715,243.560358 106.020126,241.346587 102.895091,240.438919 C101.880208,240.142755 100.823122,240 99.7620165,240 C94.3017456,240 88.6967785,243.769165 87.5331801,249.68605 C85.1939253,261.562434 84.4262433,260.557393 82.4788739,272.508351 Z" id="Fill-25"></path>
            <path d="M176.519805,152.61075 C168.717628,155.785751 161.070925,159.250409 153.630061,163.23151 C147.851238,166.327922 142.072415,169.345745 136.142498,172.112082 C129.108932,174.811058 122.031571,177.123824 114.658591,178.590072 C112.431587,178.733778 110.259328,178.679888 108.016995,178.435139 C106.19948,178.163445 104.390724,177.82439 102.665179,177.200167 C102.389267,177.081161 102.113355,176.9644 101.837443,176.845393 C99.3389072,176.151564 96.8403711,176.151564 94.3440247,176.845393 C90.818483,177.835617 87.7659331,180.249426 85.9177609,183.485053 C84.0192238,186.826213 83.4980568,190.888149 84.4987851,194.624501 C85.3703165,197.860128 87.816298,201.868174 90.9805265,203.264815 C93.2907418,204.281983 95.2681108,205.229543 97.687815,205.658415 C100.29584,206.114232 102.965179,206.358981 105.60824,206.632921 C108.901666,206.974222 112.160054,207.18529 115.45348,206.772136 C123.62354,205.737005 131.373162,203.62408 139.164391,200.992466 C147.43737,198.194693 155.375313,194.186647 163.0899,190.079804 C166.786244,188.108339 170.497917,186.186273 174.218349,184.275435 C176.747542,182.975346 179.351187,181.839172 181.952643,180.702997 C182.587678,180.440285 183.224904,180.177573 183.859939,179.923842 C184.961397,179.450062 186.056286,178.976282 187.159934,178.49352 C189.240222,177.240585 190.889125,175.54755 192.113211,173.416662 C193.98766,170.145108 194.491309,166.15278 193.508099,162.503999 C192.557735,158.960752 190.24971,155.891285 187.159934,154.041072 C185.178185,152.851008 182.47162,152 179.91615,152 C178.720531,152 177.559949,152.186369 176.519805,152.61075" id="Fill-31"></path>
            <path d="M59.734992,201.693364 C56.5767105,201.956001 53.4825204,202.547461 50.4363989,203.081141 C43.7246057,204.258809 39.5657863,208.366463 41.4582628,212.413185 C43.2866478,216.335942 50.5538998,218.888781 57.265693,217.711113 C59.9201449,217.245719 62.547892,216.822347 65.2450715,216.492474 C69.8845763,216.258201 74.4813535,216.335942 79.158245,216.50403 C84.4564669,216.693129 89.7493478,216.844409 95.0493501,216.930554 C100.299503,217.012497 105.571021,217.181635 110.821174,217.143816 C113.623392,217.128057 116.413148,217.082884 119.201124,216.984132 C120.424201,216.938958 121.649059,216.873824 122.866795,216.816044 C125.0281,216.71309 127.545467,216.734101 129.548323,216.348549 C133.881614,215.515462 137.310503,213.688554 138.547823,211.038014 C139.751317,208.45681 138.521118,205.522622 135.231093,203.647388 C130.863977,201.148128 125.154502,201 119.514459,201.217464 C116.461217,201.337227 113.400853,201.43913 110.340488,201.434928 C104.054191,201.430726 97.7750146,201.385552 91.494058,201.32462 C85.8807201,201.265789 80.2388971,201 74.6184379,201 C73.9241145,201 73.2315713,201.004202 72.5372479,201.012607 C68.2182001,201.070387 64.0255547,201.337227 59.734992,201.693364 Z" id="Fill-35"></path>
            <path d="M20.9282047,163.02373 C16.8295164,163.132493 12.8507815,163.63478 8.77912502,164.305155 C5.78198036,164.799532 2.84565713,165.912869 -0.0450500411,166.917442 C-6.41440482,169.134228 -10.3610395,176.866283 -8.56511798,184.483642 C-6.83001789,191.867655 0.0664559046,196.672999 6.43581068,194.456213 C8.95483136,193.580177 11.4485098,192.783241 14.0080781,192.162304 C18.4108735,191.72132 22.7731212,191.867655 27.2113957,192.184057 C32.2393002,192.540008 37.2621362,192.824769 42.2917302,192.986925 C47.2740185,193.14117 52.2765807,193.459549 57.2588691,193.388359 C59.918117,193.358696 62.5655385,193.273663 65.2112704,193.087778 C66.371946,193.002745 67.534311,192.880139 68.6899181,192.771376 C70.7409517,192.577581 73.1298821,192.617131 75.0305516,191.891386 C79.1427557,190.323222 82.396702,186.884336 83.5708934,181.895085 C84.7129846,177.036349 83.5455511,171.51317 80.4233846,167.983319 C76.2790803,163.278829 70.860905,163 65.5086196,163.409344 C62.6111545,163.63478 59.7069315,163.826598 56.8027084,163.818688 C50.8371404,163.810778 44.8783302,163.725745 38.9178306,163.61105 C33.5908874,163.500309 28.2369125,163 22.9032115,163 C22.2443127,163 21.5871034,163.00791 20.9282047,163.02373" id="Fill-35" transform="translate(37.500000, 179.000000) rotate(60.000000) translate(-37.500000, -179.000000) "></path>
            <path d="M236.9615,252.357664 C234.478475,252.178058 232.08039,252.541915 229.755394,253.294402 C228.469436,253.378012 227.185453,253.455428 225.905421,253.577746 C223.282146,253.819285 220.674674,254.110371 218.051398,254.339523 C213.352022,254.751379 208.668448,255.24065 203.96117,255.6107 C193.396956,256.445249 182.787308,256.7224 172.217168,257.454759 C165.688609,257.908419 159.199559,258.591231 152.724335,259.359202 C147.864955,259.93518 142.995697,260.775922 138.333852,262.014584 C133.936706,263.188217 128.74349,264.651386 125.379455,267.294382 C120.603039,271.038239 119.607459,277.093749 123.016927,281.653574 C124.344367,283.437248 126.311824,284.956157 128.557806,286.013665 C130.086733,286.739831 131.80727,287.187298 133.450768,287.707536 C138.798062,289.395213 144.631294,289.994416 150.340078,290.308726 C159.561049,290.810385 168.92227,291.137082 178.157069,290.943541 C189.44624,290.708195 200.597135,289.878291 211.591978,287.738502 C217.857813,286.521517 224.015004,284.810614 230.004289,282.941783 C234.101182,281.665961 238.089429,280.267821 241.893969,278.532145 C245.327141,276.966786 248.353389,274.854867 251.423096,272.902425 C254.471073,270.967016 256,267.192192 256,264.24108 C256,261.005074 254.340699,257.872807 251.423096,255.585927 C248.507467,253.299047 244.501441,252 240.380845,252 C239.239088,252.119221 238.101282,252.238442 236.9615,252.357664" id="Fill-113" transform="translate(188.500000, 271.500000) rotate(4.000000) translate(-188.500000, -271.500000) "></path>
            <g id="Group-2" transform="translate(132.000000, 135.000000)">
                <path d="M52.2371907,159.224422 C52.1322651,170.792771 52.008011,182.349877 51.7677864,193.891243 C51.5703605,203.489937 51.4371325,213.171824 51.105098,222.741288 C50.8703959,226.547938 50.9256199,230.156723 51.5441291,233.590128 C52.1101755,236.751468 53.0517452,239.114604 54.1355169,240.090438 C55.2544939,241.091004 56.4763257,240.573858 57.4793322,238.66716 C58.4850999,236.744723 59.1160345,233.774502 59.4715392,230.217431 C59.7876968,227.074078 59.8277343,223.568723 59.9381823,220.29271 C60.0189475,217.808157 60.1004029,215.33035 60.1673621,212.845797 C60.3323439,206.687253 60.4669525,200.530958 60.5960386,194.374663 C60.8417856,182.675904 60.9632785,170.950163 61.0682041,159.224422 C61.1386148,151.390773 59.0055865,144.845494 56.6537329,144.845494 C54.1921216,144.845494 52.3076014,151.390773 52.2371907,159.224422" id="Fill-115"></path>
                <path d="M54.7719381,200.701994 C48.5466525,201.103068 42.8874819,203.118319 37.1649698,205.433881 C31.5829967,207.694123 26.301896,210.365318 21.2603054,213.64504 C15.415069,217.442404 9.96373788,221.964863 4.49855077,226.269992 C2.05396327,228.200286 0.840576923,232.120146 0.840576923,235.091652 C0.840576923,238.38718 2.16283154,241.581945 4.49855077,243.913313 C6.83229058,246.236778 10.0330177,247.564473 13.3346954,247.564473 C14.4411929,247.418269 15.5476904,247.270088 16.6601262,247.115981 C18.7721706,246.529187 20.6110546,245.456363 22.1728194,243.913313 C23.0655392,243.209951 23.958259,242.500662 24.8549377,241.801251 C26.3592992,240.647422 27.8597019,239.497543 29.3640635,238.341738 C34.073111,234.72219 39.2394052,231.681532 44.623436,229.192105 C47.8993812,227.876265 51.2208531,226.708605 54.6808846,225.989437 C55.62309,225.945971 56.5534188,225.943995 57.4956242,225.989437 C58.5684715,226.232453 59.6076687,226.536716 60.6508246,226.898276 C63.6872596,228.386005 66.5316906,230.154289 69.2791298,232.130024 C72.7253054,234.99089 75.9280119,238.112553 79.1980188,241.18087 C83.8298688,245.541319 88.8160356,249.184576 95.0334035,250.905442 C100.955837,252.549255 107.412715,249.901769 110.504574,244.622602 C112.361273,241.459449 112.864047,237.616643 111.888191,234.082051 C111.039018,230.986073 108.66569,227.265763 105.595605,225.908432 C102.830351,224.689403 100.32836,223.144378 97.9035669,221.399803 C85.9201396,211.661401 73.1884904,200.630867 57.0462952,200.630867 C56.2960938,200.630867 55.5399542,200.654576 54.7719381,200.701994" id="Fill-117"></path>
                <path d="M108.72545,10.7398023 C106.791554,12.9362283 105.368349,15.4275302 104.016403,17.8805779 C102.122095,21.2931673 100.498968,24.7854529 99.0599272,28.3351197 C95.9660889,35.9684175 94.3271266,43.8009558 92.7356705,51.6892813 C91.8528478,56.0725699 91.2511032,60.5180215 90.7641651,64.944346 C90.0515728,71.476243 89.2934537,78.0017643 88.3512484,84.5209098 C87.909837,87.5398002 87.4842611,90.5602846 87.1141089,93.579175 C86.9280432,95.0487721 86.7340597,96.5183692 86.6489445,97.994342 C86.5103849,100.44739 87.3615368,102.975352 88.8698572,105.092082 C90.0515728,106.705132 91.6450084,107.986646 93.6561022,108.946188 C96.2372699,110.160757 97.6604751,110.148006 100.590021,110.426942 C102.979185,110.426942 105.213954,109.936014 107.28641,108.970097 C109.188635,108.064748 117.330002,104.12457 119.325261,102.514708 L121.227486,100.533462 C122.333984,99.0032954 122.882284,97.351991 122.890202,95.5779546 C123.879913,89.5832097 124.869625,83.585277 125.859336,77.5889382 C127.476525,69.2112782 129.081837,60.8511514 131.23347,52.5484059 C133.513765,43.7627016 135.841567,35.0025001 137.589397,26.1370997 C138.108006,23.5023447 138.53952,20.8500567 138.941343,18.1977686 C139.305557,15.7877568 139.212524,13.6152396 138.794866,11.181319 C138.53952,9.71172187 137.983303,8.31066344 137.039118,7.00364648 C136.304752,6.1508976 135.501106,5.33480896 134.644016,4.56813194 C133.104025,3.34240506 131.294832,2.48965618 129.206541,2.01626102 C127.955545,1.62415593 126.659023,1.44882438 125.36448,1.44882438 C122.341901,1.44882438 119.317343,2.39242687 116.829208,3.69784991 C113.418662,5.48463774 111.037416,8.10504736 108.72545,10.7398023 Z" id="Fill-119" transform="translate(112.901203, 55.937883) rotate(-1.000000) translate(-112.901203, -55.937883) "></path>
            </g>
        </g>
    </g>
</svg>