<?xml version="1.0" encoding="UTF-8"?>
<svg width="400px" height="400px" viewBox="200 250 400 400" version="1.1" xmlns="http://www.w3.org/2000/svg" xmlns:xlink="http://www.w3.org/1999/xlink">
    <!-- Generator: Sketch 52.5 (67469) - http://www.bohemiancoding.com/sketch -->
    <title>aversion_DL</title>
    <desc>Created with Sketch.</desc>
    <g id="aversion_DL" stroke="none" stroke-width="1" fill="none" fill-rule="evenodd">
        <path d="M346.303823,328.773689 C348.163673,326.725497 350.255973,324.909304 352.751004,323.564114 C356.372497,321.610331 360.278744,320.251019 364.316417,319.442682 C367.956164,318.732216 371.727335,318 375.458349,318 C376.03881,318 376.61562,318.014499 377.192431,318.054372 C392.883133,319.083824 399.114876,334.877209 406.97483,346.05256 C407.989724,347.274128 409.059378,348.405075 410.256808,349.452651 C410.435692,349.575895 410.618227,349.695514 410.800762,349.815134 C410.804412,347.3285 410.545213,344.823743 410.278712,342.366108 C410.077923,340.51382 411.205989,338.360671 412.491035,337.08473 C413.900205,335.685546 415.827774,334.891708 417.821055,334.891708 C419.803384,334.891708 421.745556,335.685546 423.143773,337.08473 C424.680718,338.614409 425.1115,340.299955 425.352446,342.366108 C426.009572,347.846851 426.83463,354.175804 424.0674,359.188944 C423.399322,360.421386 422.530456,361.468962 421.643336,362.545537 C420.832881,363.208881 419.98957,363.832352 419.135306,364.412324 C418.164221,364.850929 417.182183,365.24966 416.181891,365.615768 C415.170648,365.771636 414.144802,365.898505 413.129907,366 C412.397189,365.939437 411.668992,365.852764 410.948835,365.734884 C411.931472,370.003601 412.492721,374.380258 412.789615,378.826985 C413.230819,385.097726 412.991442,391.241738 411.944757,397.456154 C411.939146,397.489222 411.933523,397.522301 411.927889,397.55539 C413.615426,398.104763 415.316223,398.540571 417.102372,398.859181 C421.193937,399.259735 425.271328,399.305775 429.391241,399.167653 C432.684336,399.057156 435.953809,398.711851 439.228005,398.366546 C447.978096,396.870225 456.628968,395.162117 464.939664,392.017541 C469.645436,389.908879 474.011032,387.256938 478.371903,384.508312 C479.343848,383.896905 480.329077,383.30168 481.314793,382.703451 C480.440573,374.25872 481.40356,365.438159 483.999978,357.380727 C485.399375,353.009209 489.458107,350 494.007349,350 C494.906618,350 495.820314,350.116636 496.734009,350.363904 C502.297935,351.856845 505.303513,357.399388 503.966632,362.722656 C503.303,365.391288 502.725929,368.055254 502.269081,370.765875 C502.05268,372.893316 501.889176,375.011426 501.850705,377.134201 C503.889689,376.779628 505.923864,376.406392 507.95323,376.023826 C510.766451,375.496632 513.377697,375.585275 515.916809,377.026896 C518.225092,378.337885 519.956305,380.507315 520.668026,383.021987 C522.057805,387.962688 518.975284,394.321684 513.454639,395.343415 C509.751768,396.0339 506.053705,396.780371 502.317171,397.293569 C500.32206,397.560229 498.135478,398.166692 496.093378,397.956572 C494.083016,399.390998 491.964691,400.700938 489.890651,402.026778 C486.106189,404.45312 482.283931,406.989959 478.20654,408.932875 C471.010866,412.330674 463.56951,414.651123 455.821049,416.432896 C451.852326,417.330689 447.845805,417.979862 443.844009,418.642847 C441.311585,419.057213 438.746089,419.255188 436.21839,419.508411 C435.181818,419.611416 434.142786,419.752789 433.103068,419.837345 C438.253186,423.44545 443.028689,427.463012 447.703526,431.660161 C450.320011,431.105775 452.929448,430.519683 455.538885,429.895346 C463.829199,427.913678 472.181275,426.104127 480.158029,423.094411 C484.628623,421.145306 489.203736,419.214808 493.265752,416.526066 C493.460539,416.363253 493.655326,416.20044 493.845362,416.032975 C494.646012,415.372718 495.45341,414.795349 496.298856,414.326551 C497.446086,410.428149 499.185266,406.641058 500.814937,402.983212 C501.817486,400.715517 504.525794,398.986162 506.806475,398.352541 C507.666482,398.119102 508.554997,398 509.434009,398 C511.211039,398 512.983318,398.466878 514.527529,399.376815 C516.774949,400.677405 518.461702,402.873639 519.150658,405.384301 C519.910885,408.1951 519.297952,410.558076 518.129103,413.125907 C517.592193,414.331216 517.069537,415.53176 516.54213,416.737069 C516.100248,417.894737 515.70588,419.047641 515.36853,420.219601 C515.962457,420.243421 516.561135,420.252949 517.164565,420.252949 C522.528916,420.252949 527,424.740699 527,430.138385 C527,435.517015 522.528916,440 517.164565,440 C512.181905,440 506.632425,439.026571 502.343141,436.422158 C501.623663,436.841392 500.89639,437.234238 500.173556,437.603382 C494.567498,440.473544 488.723895,443.180893 482.747268,445.162561 C476.873043,447.112801 470.807564,448.473355 464.773025,449.86003 C467.274405,452.97848 469.696537,456.160428 472.089584,459.355864 C478.272641,467.594923 483.437873,476.363568 487.713695,485.699294 C488.641153,487.728596 489.568612,489.725091 490.610219,491.70284 C491.299868,493.001031 492.06086,494.449193 492.488918,495.817683 C493.397352,498.859293 493.102467,502.135233 491.542434,504.900332 C491.097712,505.682264 490.57251,506.400462 489.986743,507.06767 C490.178972,507.490913 490.354679,507.930443 490.517747,508.385242 C492.226058,513.127542 492.314499,518.141634 491.71403,523.085436 C491.118216,527.973004 490.168638,532.785595 488.916497,537.527895 C487.771417,541.956229 486.626336,546.365818 485.462637,550.798838 C483.042142,560.00696 480.840423,569.247885 478.862134,578.568473 C477.060727,586.98465 475.296559,595.424258 472.96916,603.737341 C472.303524,606.099119 471.609959,608.451525 470.907084,610.794559 C471.502899,610.630546 472.103367,610.466534 472.699182,610.307208 C475.389655,609.594925 478.117366,609.060714 480.859042,608.474955 C483.642611,607.889197 486.333084,608.057895 488.860639,609.538692 C491.169419,610.91171 492.914968,613.179767 493.627152,615.780534 C495.172545,621.455362 491.751269,626.909944 486.370323,628.648475 C482.171695,630.002749 477.698434,630.663484 473.406711,631.685047 C467.513737,633.114297 461.169247,634.965294 455.150594,633.40952 C449.094702,631.816257 445.859618,625.372914 447.367772,619.459097 C448.368554,615.560289 449.788267,611.755202 450.951966,607.907941 C452.47874,602.875105 453.986895,597.823524 455.257654,592.715711 C458.003985,581.586301 460.131228,570.311622 462.751879,559.144724 C464.059877,553.582362 465.516829,548.034058 466.969125,542.485754 C468.756568,535.66284 470.716238,528.858671 471.852008,521.890488 C471.947096,520.954241 472.014451,520.029626 472.044861,519.106211 C468.551165,521.2192 465.030059,523.274174 461.407162,525.183977 C456.760357,527.621013 451.761592,529.411298 447.024419,531.665557 C442.325295,533.882323 437.64044,536.150642 432.960341,538.437707 C430.918889,539.445719 428.894518,540.466353 426.790127,541.352105 C426.802751,541.479937 426.814046,541.608628 426.824096,541.73818 C427.498826,550.361015 426.13501,558.965105 424.393153,567.386428 C423.498298,571.740023 422.565161,576.060813 421.478893,580.381603 C419.703539,587.631345 417.368303,594.768616 414.860795,601.798101 C412.597339,608.124638 410.319526,614.432429 408.118279,620.777711 C411.544568,620.210666 415.291474,621.269775 417.779841,623.692604 C419.780104,625.651487 420.919011,628.360182 420.919011,631.143858 C420.919011,634.110301 419.665257,636.378481 417.779841,638.576367 C415.592949,641.102295 412.975379,643.318926 409.683078,644.307741 C408.2092,644.762314 406.730536,645.020062 405.199233,645.27781 C402.782646,645.680833 400.389986,646.172897 397.978185,646.575921 C394.561466,647.124221 390.22118,647.508499 387.249496,645.296555 C385.100888,643.68446 382.97142,641.908343 382.411538,639.143412 C382.220125,638.154598 382.07178,637.165784 382,636.158224 C382.148345,634.513325 382.373255,633.02776 382.856572,631.471901 C383.885416,628.289887 385.21095,625.178168 386.392924,622.047704 C387.795023,618.293959 389.082274,614.521469 390.426949,610.767724 C393.49434,602.332342 396.820137,593.948509 399.380284,585.344419 C402.442889,575.109489 405.031747,564.757401 406.634829,554.2038 C407.103791,550.014227 407.266492,545.960557 406.936305,541.73818 C406.865599,540.829172 406.962136,539.945064 407.196405,539.104131 C406.059141,537.503304 405.345498,535.647846 405.017676,533.530828 C404.665718,531.206269 404.332784,528.900458 403.9618,526.5759 C403.124709,521.430003 402.287618,516.232553 400.708561,511.236628 C397.403003,500.67301 392.851321,490.512442 388.727697,480.244081 C386.701557,475.210663 384.675416,470.153811 382.872817,465.031347 C381.445958,460.97743 380.161784,456.857901 378.568458,452.841477 C377.977072,451.5713 377.350903,450.315496 376.864887,449.018217 C375.520935,449.810857 374.130566,450.534383 372.672948,451.161104 C363.726842,455.028687 354.118931,458.788315 344.257562,458.985449 C335.325537,459.187277 326.524934,457.281647 318.348588,453.761396 C315.339955,452.46125 312.425195,450.973357 309.712263,449.142827 C309.318335,448.87409 308.920379,448.603156 308.520811,448.329092 C308.736979,449.635104 308.92422,450.946931 309.08186,452.26578 C309.635772,457.02512 309.858284,461.817381 309.436932,466.595533 C309.043986,471.02567 308.655774,475.742684 307.268626,479.989408 C305.848338,484.377218 303.717907,488.642754 299.707961,491.21054 C296.876854,493.011753 293.771158,493.364471 290.551839,492.663738 C285.282571,491.525635 282.266826,485.520024 283.635037,480.577271 C284.293104,478.211709 285.836483,476.151837 287.924306,474.853835 C288.506624,472.930346 288.909039,470.978641 289.221502,468.979906 C289.756477,463.769086 289.794352,458.614702 289.283048,453.403883 C288.293581,447.327729 286.612907,441.477314 284.368852,435.720958 C281.968566,430.453704 279.023836,425.463921 276.590409,420.191964 C274.351089,415.395 273.058627,410.306457 273.001815,404.996876 C272.982878,402.245677 273.115438,399.489774 273.243264,396.71506 C273.574665,389.477288 274.057563,382.258328 274.573601,375.015854 C275.260073,365.02218 276.737172,354.313664 281.547214,345.368737 C283.635037,341.493543 286.281507,337.65127 289.718603,334.824823 C293.491834,331.716203 297.378689,329.313018 301.909407,327.398936 C306.771525,325.362577 311.785141,323.725966 317.016535,322.917067 C320.344743,322.409153 323.630342,322 326.934878,322 C328.861735,322 330.798061,322.141087 332.753324,322.479696 C337.522278,323.314326 342.198157,325.346287 345.341391,329.102674 C345.661314,328.99063 345.982129,328.880958 346.303823,328.773689 Z M342.410638,352.833717 C339.920385,354.322715 337.512962,355.943057 335.119016,357.639768 C331.650405,360.451275 328.350766,363.342575 325.398457,366.726709 C324.32361,368.247458 323.356717,369.805755 322.521247,371.472008 C322.169223,372.532777 321.878216,373.574771 321.652921,374.654315 C321.582516,376.179757 321.596597,377.714586 321.610678,379.230641 C321.667002,384.661215 317.048445,389.185911 311.674211,389.185911 C306.192022,389.185911 301.775293,384.661215 301.718969,379.230641 C301.68142,376.062415 301.718969,372.889495 302.343225,369.754125 C303.169308,365.590842 304.873105,361.282054 307.295031,357.761803 C310.411617,353.269963 313.964714,348.998725 318.221859,345.534798 C319.503227,344.48811 320.789288,343.441422 322.051881,342.399428 C322.511364,342.02382 322.97463,341.652862 323.441609,341.286724 C323.220651,341.302384 322.99952,341.319602 322.778169,341.338347 C318.42262,342.072001 314.237505,343.144263 310.099733,344.64449 C307.84621,345.665021 305.701575,346.812529 303.651626,348.195184 C302.496459,349.187497 301.431243,350.231542 300.432307,351.374348 C299.428637,352.898089 298.562262,354.454751 297.757432,356.096065 C296.204584,360.229919 295.248257,364.523672 294.571253,368.892671 C293.889515,374.935904 293.501303,381.016761 293.179371,387.088212 C292.847971,393.573519 292.204107,400.22813 292.658599,406.732248 C292.980531,408.265396 293.42082,409.737405 293.969998,411.209415 C293.992998,411.256019 294.016043,411.3026 294.039131,411.34916 C294.935861,409.644211 296.053031,408.229945 297.940577,407.120417 C300.381277,405.688848 303.371135,405.303967 306.121617,406.054954 C311.509933,407.542847 315.288325,413.592985 313.528204,419.108045 C313.223117,420.037391 312.964966,420.943269 312.744364,421.863228 C312.786607,421.999344 312.82885,422.135461 312.875786,422.266884 C313.603303,423.665597 314.382449,425.003292 315.246082,426.308132 C316.419496,427.627052 317.668008,428.828632 319.010393,429.959806 C321.69047,431.870128 324.492582,433.512912 327.463665,434.911625 C330.951051,436.202384 334.475985,437.136424 338.132342,437.788844 C340.91568,438.051689 343.647387,438.079851 346.430724,437.849862 C351.912913,436.831336 357.216743,435.089985 362.403231,433.029464 C365.393089,431.677688 368.312543,430.114697 370.931602,428.1105 C371.48076,427.68807 372.039305,427.26564 372.593156,426.838516 C376.329305,423.599885 379.901176,420.281462 383.0647,416.484284 C384.651155,414.217243 386.017008,411.851634 387.218584,409.345215 C389.433989,403.623634 391.011057,397.803486 392.109372,391.753347 C392.559963,386.012991 392.390992,380.399364 391.808978,374.677783 C391.15656,371.134064 390.297622,367.735848 389.044416,364.375181 C387.716111,361.591836 386.200061,358.991544 384.435247,356.471044 C382.229229,353.847284 379.934032,351.331478 377.32436,349.101986 C376.343386,348.454259 375.353025,347.876938 374.311033,347.355941 C372.269294,346.656585 370.22286,346.168443 368.110716,345.778869 C366.392838,345.647446 364.703122,345.65214 362.980551,345.797643 C359.732498,346.337462 356.52606,347.031853 353.379265,347.952925 C353.349132,348.15704 353.31988,348.362103 353.291307,348.568192 C353.064964,350.326235 351.396595,352.066153 349.925363,352.914363 C348.242391,353.893068 346.176096,354.161305 344.292336,353.653829 C343.628077,353.467835 342.994276,353.190156 342.410638,352.833717 Z M396.208324,432.804198 C397.734199,433.270065 399.282725,433.625887 400.86557,433.914503 C406.842198,434.482023 412.828327,434.73322 418.852464,434.747175 C418.866703,434.747175 418.880941,434.747173 418.89518,434.747169 C416.644316,433.37765 414.32383,432.121292 411.904651,430.997191 C408.136965,429.580434 404.312469,428.522877 400.327249,427.708168 C399.029065,429.476356 397.654193,431.170458 396.208324,432.804198 Z M401.560391,455.124883 C402.13279,456.871719 402.710202,458.616498 403.329226,460.344738 C406.116358,468.105763 409.160325,475.777742 412.266122,483.426289 C415.424238,491.243553 418.563329,499.04207 421.05082,507.117098 C422.111453,510.575816 422.763052,514.311043 423.319527,517.863493 C423.457457,518.730516 423.595387,519.602225 423.733316,520.469248 C425.811775,519.438194 427.890233,518.37902 429.968692,517.366712 C435.319415,514.765644 440.765262,512.441086 446.154035,509.952497 C451.485733,507.5014 456.536815,504.79254 461.53558,501.750931 C464.470154,499.965332 467.461803,498.245347 470.401133,496.450376 C470.096737,495.841116 469.797096,495.231857 469.506968,494.613225 C467.946935,491.351345 466.367877,488.112898 464.584303,484.982243 C460.669952,478.11636 456.037415,471.737885 451.304997,465.410963 C448.330296,461.690126 445.3197,457.988939 442.017559,454.534121 C441.178432,454.658927 440.336587,454.771591 439.490357,454.86622 C436.834606,455.154632 434.126595,455.629116 431.432837,455.736107 C426.439645,455.936135 421.503464,456.029171 416.515023,455.991956 C412.281974,455.936135 407.901648,455.829143 403.692354,455.354659 C402.984616,455.274132 402.273284,455.199472 401.560393,455.124883 Z M361.872848,433.268842 C361.483275,433.437814 361.089008,433.602092 360.699435,433.775758 C361.089008,433.611479 361.483275,433.442507 361.872848,433.268842 Z M312.645797,422.670539 C312.659878,422.858286 312.68804,423.046032 312.720896,423.233779 L312.645797,422.670539 Z M386.767993,410.495164 C386.650652,410.776784 386.538004,411.058404 386.425356,411.335331 C386.538004,411.058404 386.655346,410.776784 386.767993,410.495164 Z M388.33098,362.568119 C388.443628,362.840352 388.556276,363.112585 388.66423,363.389511 C388.560969,363.112585 388.448322,362.840352 388.33098,362.568119 Z M516.181022,417.575544 C516.00522,417.990018 515.824666,418.404492 515.644112,418.82373 C515.829417,418.404492 516.00522,417.990018 516.181022,417.575544 Z M358.154185,361.231962 C359.523332,356.977308 363.239589,354 367.496053,354 C368.324993,354 369.177217,354.109215 370.034098,354.351389 C374.928567,355.723705 378.421289,361.360172 376.782038,366.479053 C376.376882,367.746902 375.953099,369.010002 375.538629,370.277851 C376.139377,370.681473 376.684242,371.132581 377.145281,371.602682 C378.966154,373.47359 380,376.014036 380,378.649453 C380,383.288735 376.982288,386.812121 372.832933,388.255664 C370.071354,389.224358 365.72175,389.238603 362.974142,388.350634 C358.97381,387.0353 355.550942,384.509099 354.372731,380.168972 C353.660215,377.51931 354.060714,374.589487 354.805828,372.011053 C355.825703,368.392697 357.008572,364.81233 358.154185,361.231962 Z M331.524951,379.825476 C333.876512,379.453296 336.316374,379 338.723703,379 C340.536172,379 342.330051,379.257663 344.049572,379.99248 C346.322129,380.961102 347.827872,381.710234 349.607809,383.513875 C351.183262,385.117112 351.875718,387.020956 352.544937,389.106118 C353.474408,391.940412 352.781952,395.7815 352.219622,398.558536 C351.550403,401.912927 350.802179,405.21006 349.789056,408.473792 C348.153187,413.784514 342.906323,417.157992 337.496802,415.6311 C332.087281,414.104208 329.29422,408.454706 330.525769,403.010381 C330.75349,402.008358 330.985857,401.006335 331.222873,400.009083 C330.50718,399.799136 329.796135,399.493757 329.075795,399.059547 C326.784648,397.680573 325.06048,395.390234 324.372671,392.761117 C323.629094,390.060426 324.010178,387.092529 325.409031,384.654273 C326.603402,382.526167 329.038616,380.216742 331.524951,379.825476 Z M287.147882,476.612721 C287.001119,476.800838 286.854356,476.988954 286.707593,477.17707 C286.85909,476.99836 287.010588,476.805541 287.147882,476.612721 Z M298.448639,354.351287 C298.382359,354.515889 298.311344,354.68049 298.245064,354.845092 C298.311344,354.68049 298.382359,354.520592 298.448639,354.351287 Z M410.114,352.728 C410.038,352.908 409.962,353.092 409.886,353.272 C409.97,353.092 410.042,352.908 410.114,352.728 Z M414.46,350.934 C414.156,350.978 413.848,351.022 413.54,351.066 C413.848,351.046 414.156,351.002 414.46,350.934 Z" id="aversion" fill="#000000"></path>
    </g>
</svg>