<?xml version="1.0" encoding="UTF-8"?>
<svg width="400px" height="400px" viewBox="200 275 400 400" version="1.1" xmlns="http://www.w3.org/2000/svg" xmlns:xlink="http://www.w3.org/1999/xlink">
    <!-- Generator: Sketch 52.5 (67469) - http://www.bohemiancoding.com/sketch -->
    <title>beaming with excitement_DL</title>
    <desc>Created with Sketch.</desc>
    <g id="beaming-with-excitement_DL" stroke="none" stroke-width="1" fill="none" fill-rule="evenodd">
        <path d="M417.354282,595.771031 C417.337125,595.713083 417.320771,595.655409 417.305234,595.598053 C416.898255,594.081516 416.898255,592.564978 417.305234,591.04844 C417.703964,589.587351 418.432677,588.331425 419.485874,587.258481 C419.901103,586.842611 420.34658,586.482191 420.816806,586.163358 C420.863554,586.118998 420.913051,586.069094 420.959799,586.024734 C421.540019,585.073779 422.018495,584.064602 422.483221,583.044335 C424.413623,578.103804 425.785804,572.971973 426.619011,567.72647 C426.775753,566.013088 426.880248,564.291387 426.984743,562.578004 C427.124986,560.249134 427.801451,558.189193 429.476116,556.511853 C431.054536,554.909368 433.235175,554 435.481811,554 C439.917336,554 444.267615,557.898085 443.987129,562.578004 C443.494904,570.981343 442.238218,579.600935 439.122626,587.485823 C437.995183,590.355324 436.930988,593.474346 435.138079,596.019468 C434.905156,596.349553 434.667893,596.675991 434.423858,596.996764 C434.983722,598.606596 435.402856,600.296968 435.977394,601.807901 C436.704748,603.570869 437.342924,605.331046 437.813893,607.213963 C438.337811,609.31725 438.839434,611.431695 439.307616,613.54335 C440.154802,617.359394 440.829207,621.206122 441.656886,625.030534 C441.863109,625.973387 442.074905,626.907871 442.289489,627.845145 C443.429288,622.469768 444.535647,617.086022 445.6643,611.702277 C446.503125,607.649125 447.514733,603.5625 448.82174,599.629297 C450.226286,595.422723 451.781319,591.260781 453.152423,587.043049 C455.961514,578.370476 458.497499,569.653272 460.164004,560.673854 C461.680021,552.528498 463.639139,544.466828 464.979589,536.301945 C464.993523,536.120627 465.007457,535.93652 465.021391,535.757992 C463.951261,535.967204 462.881131,536.173628 461.808214,536.363314 C458.845849,536.876583 455.88627,537.34522 452.935053,537.836173 C446.870983,538.848764 440.840354,539.992461 434.779071,540.907419 C428.029449,541.933957 421.257533,542.901915 414.474469,543.666239 C408.71416,544.313405 402.953851,544.888043 397.201902,545.607735 C390.441133,546.556167 383.67479,547.457177 376.90566,548.34703 C377.031066,548.330293 377.159259,548.313555 377.290238,548.296818 C371.379442,549.102986 365.468646,549.984469 359.546703,550.704162 C355.342425,551.219261 351.140522,551.665402 346.938802,552.16992 C347.065558,552.514225 347.191396,552.859117 347.316367,553.204631 C348.798258,557.326216 349.933912,561.623724 351.155432,565.834666 C352.45451,570.285756 353.698189,574.748014 354.944639,579.207481 C357.193788,587.257977 359.271204,595.361528 361.284912,603.467872 C362.431646,608.11443 363.545141,612.760987 364.617088,617.418714 C365.54777,621.476075 366.315029,625.578114 367.245711,629.635474 C367.53101,630.89764 367.830158,632.157014 368.140385,633.413595 C369.281579,629.61872 370.359065,625.815468 371.497489,622.020593 C373.076325,616.742953 374.993088,611.627272 376.843373,606.455743 C377.621712,604.263707 378.269865,602.038162 379.028815,599.846126 C379.590064,598.22892 380.173832,596.487562 381.027702,594.940304 C380.429768,593.039835 379.904558,591.120887 379.485301,589.167833 C379.14746,587.546422 378.839348,585.905239 378.523129,584.273942 C378.058259,581.869014 377.636633,579.446785 377.150142,577.041858 C376.601487,574.261238 376.052833,571.480618 375.442016,568.699998 C375.187959,567.523487 374.912281,566.344504 374.669035,565.165521 C374.374437,563.727014 373.858216,562.164923 374.036596,560.716529 C374.290652,558.581013 374.785252,556.823661 376.506892,555.251684 C377.563659,554.295151 378.798807,553.637689 380.233957,553.271883 C380.963695,553.086508 381.704243,553 382.439386,553 C385.39347,553 388.244851,554.428621 389.766489,556.816246 C391.350289,559.287909 391.542183,562.377486 392.047593,565.14822 C392.534085,567.859633 393.017874,570.573518 393.493554,573.287403 C393.947613,575.815914 394.361131,578.354311 394.81519,580.885293 C395.153031,582.719266 395.45844,584.543353 395.880066,586.360024 C396.588181,589.410056 397.558461,592.383465 398.636851,595.339573 C399.711326,598.272719 398.296495,601.441975 395.774142,603.311898 C395.294073,604.665159 394.821569,606.018743 394.349065,607.38282 C393.332516,610.317635 392.219021,613.207772 391.027969,616.086738 C388.418735,622.391983 386.471504,628.903865 384.405167,635.404578 C382.502254,641.360772 380.3916,647.219232 378.704738,653.250821 C377.893161,656.152127 377.200689,659.391313 375.42519,661.857005 C374.170431,663.613426 372.483569,665.302829 370.264889,665.730067 C368.74976,666.012099 366.996421,666.21036 365.503452,665.598824 C363.913536,664.953779 362.539672,664.4316 361.326461,663.144302 C359.908278,661.650367 359.326602,660.427295 358.556573,658.56197 C358.049683,657.33052 357.714527,656.020884 357.368291,654.733586 C355.127451,646.303324 352.789666,637.892608 350.928301,629.372989 C349.133414,621.160533 347.272049,612.967625 345.183554,604.830565 C342.826379,595.646353 340.422116,586.484481 337.879359,577.353326 C335.605281,569.193926 333.245337,561.070828 330.403432,553.101312 C329.960249,552.084877 329.522607,551.071235 329.073885,550.063178 C328.154283,548.021932 327.655703,546.13706 328.273388,543.889176 C328.678514,542.383263 329.527752,541.031303 330.676173,540.007686 C331.775492,538.526744 333.486193,537.170775 335.259768,536.854267 C339.297837,536.134575 343.324758,535.42883 347.396268,534.915561 C350.812881,534.499925 354.218347,534.07313 357.6266,533.640757 C366.285177,532.446849 374.938182,531.152518 383.607907,529.983715 C389.744434,529.132916 395.8726,528.173326 402.034208,527.484318 C407.992379,526.828785 413.964485,526.223462 419.917083,525.459138 C431.501798,523.844014 443.005695,521.83278 454.556968,519.986128 C458.748311,519.322226 463.014897,518.22316 467.261975,518.025106 C467.613112,518.008369 467.972608,518 468.337679,518 C470.79006,518 473.498827,518.421215 475.491386,519.74623 C477.603778,521.152141 479.334379,522.831423 480.334839,525.205293 C481.19596,527.244421 481.469066,528.312802 481.750532,530.513721 C481.914953,531.755051 482.054293,532.988013 481.97905,534.240501 C481.664141,539.175136 480.652534,544.11256 479.596338,548.927247 C478.615386,553.440666 477.614926,557.928981 476.764953,562.461927 C475.13189,571.092657 473.064086,579.569964 470.352533,587.93848 C467.621472,596.348839 464.366493,604.589038 462.340492,613.216978 C461.340032,617.532343 460.467765,621.870024 459.564842,626.207705 C458.673067,630.500754 457.66146,634.771487 456.725096,639.064536 C455.830535,643.151161 454.916465,647.246155 453.80732,651.290938 C453.252747,653.316119 452.706535,655.355247 452.129668,657.36927 C451.739517,658.775181 451.324284,660.072301 450.694468,661.402895 C449.331724,664.234243 446.154776,666 443.050284,666 C435.943952,666 433.53616,658.077805 431.850147,652.565742 C431.175743,650.364822 430.498551,648.17506 429.84644,645.971351 C428.617463,641.842883 427.288161,637.722783 426.34065,633.530157 C425.329043,629.039053 424.392679,624.528423 423.422874,620.017793 C422.639784,616.385856 421.837186,612.631182 420.560833,609.127563 C419.839053,607.545914 419.145141,605.955896 418.537619,604.315666 C418.172548,603.325392 417.913376,602.296065 417.592895,601.289053 C416.957505,599.590244 416.781937,597.835645 417.294707,595.980624 C417.313653,595.910447 417.333516,595.840578 417.354282,595.771031 Z M452.184292,458.802928 C452.039374,459.143957 451.894456,459.487758 451.752325,459.83156 C451.894456,459.490531 452.039374,459.146729 452.184292,458.802928 Z M393.640206,346.729192 C397.310533,346.316076 401.050532,346 404.776597,346 C406.997744,346 409.216104,346.110904 411.406596,346.382618 C417.459709,347.120127 423.445938,348.786456 428.89151,351.592319 C430.925936,352.632041 432.907411,353.716125 434.888886,354.875069 C438.556426,357.040464 442.062327,359.965549 445.024785,363.040354 C446.61331,364.665093 448.246424,366.278742 449.72626,368.011612 C453.13462,372.006918 456.281013,376.135308 458.861668,380.704541 C463.716421,389.346712 467.668223,398.640442 470.987403,407.95358 C472.545271,412.328731 473.45937,416.792605 474.144943,421.372928 C474.61314,424.458824 474.808222,427.5669 474.950353,430.686067 C475.145435,434.803367 474.744123,438.820853 474.122648,442.882701 C473.414779,447.560065 472.196911,452.12098 470.594452,456.582081 C468.863797,461.445208 466.938059,466.319426 464.630519,470.93302 C462.780028,474.637204 460.918389,478.199985 458.435274,481.535414 C455.539701,485.39209 452.131341,488.597207 448.441506,491.672012 C444.369868,495.062893 440.256426,498.431593 435.836427,501.356678 C431.840034,504.010049 427.626264,506.283575 423.284298,508.31034 C420.377578,509.663365 417.426267,510.888851 414.466595,512.133745 C408.956924,514.429452 403.188073,515.696527 397.277091,516.411856 C392.519878,516.985782 387.751519,517.548619 382.972012,517.787062 C378.443324,518.014414 373.978735,518.166907 369.450047,517.66784 C363.201852,516.963602 356.931361,515.491355 351.282346,512.674401 C347.862839,510.963711 344.401528,508.731774 341.854315,505.862141 C339.831037,503.574752 337.913661,501.129326 336.325136,498.517543 C334.613989,495.703362 332.972514,492.756096 331.590219,489.756151 C329.410875,485.045516 327.267761,480.30161 325.383827,475.471754 C323.555631,470.758347 321.866779,466.036622 320.3535,461.217856 C318.993501,456.875976 318.188091,452.359423 317.544321,447.86505 C316.783501,442.547218 316.3376,437.218295 316.173173,431.84501 C316.033829,427.026245 315.88055,422.229659 316.142518,417.408121 C316.412845,412.190102 317.349239,406.753048 319.24432,401.845559 C321.170058,396.874301 323.271369,392.141485 327.136778,388.340261 C330.968744,384.561217 337.31448,384.527946 341.146447,388.340261 C344.281692,391.448337 344.967266,396.475047 342.693168,400.287362 C341.77907,401.823378 340.733988,403.276217 339.850545,404.834414 C339.256939,405.893544 338.721857,406.96931 338.217431,408.064484 C337.573661,409.722494 336.946612,411.416549 336.595464,413.141101 C336.325136,414.44422 336.093825,415.741793 335.884809,417.042139 C335.249399,426.782256 335.553169,436.644368 336.701366,446.331806 C337.660054,451.46942 338.794316,456.501676 340.460873,461.456299 C342.12743,466.36656 343.958413,471.179781 345.886938,475.990229 C348.322675,481.438373 350.819723,486.883745 354.236444,491.799552 C355.153329,492.855909 356.114804,493.823544 357.16546,494.741272 C358.461361,495.575823 359.776771,496.307787 361.167426,496.975982 C364.344475,498.154334 367.602343,498.997202 370.954965,499.576674 C379.418734,500.430632 388.10824,499.546175 396.546927,498.670036 C400.858237,498.010159 405.111023,497.045297 409.185449,495.431648 C410.330858,494.97417 411.476268,494.522237 412.621678,494.070305 C415.860037,492.631329 419.08725,491.178491 422.194626,489.465029 C425.851019,487.435491 429.264953,485.195236 432.648231,482.758127 C436.962328,479.431016 441.307081,476.090042 444.882654,471.961652 C448.0179,467.611454 450.278063,462.809324 452.541013,457.951742 C453.775603,455.004476 454.973964,452.043347 455.899209,448.979632 C456.988881,445.400215 457.816586,441.86516 458.443635,438.199793 C458.867241,433.552927 458.652651,428.975377 458.248553,424.33683 C457.724619,421.134485 457.066914,418.004228 456.138881,414.873971 C455.196914,411.660537 453.928882,408.560778 452.677571,405.463792 C450.977571,401.521166 449.224621,397.60072 447.265441,393.788405 C446.069867,391.448337 444.893802,389.022319 443.433474,386.823653 C442.315934,385.154552 441.167737,383.53813 439.972164,381.932799 C436.538722,378.017899 432.971509,374.16954 428.924953,370.861837 C425.90397,368.762985 422.715774,366.966345 419.360365,365.466372 C416.397906,364.35179 413.402005,363.495059 410.283481,362.943313 C404.924302,362.438701 399.478729,362.85459 394.130698,363.45347 C389.855617,364.19098 385.711519,365.208521 381.567422,366.539366 C377.54316,367.836939 373.569063,369.248188 369.645129,370.828566 C365.958081,372.42558 362.259885,374.086362 358.912836,376.312754 C358.617427,376.587241 358.341525,376.861728 358.06841,377.15285 C357.583492,377.995718 357.143165,378.844131 356.725132,379.728588 C355.855624,381.550182 353.743165,382.936478 351.859231,383.454953 C349.746773,384.028879 347.461527,383.726667 345.577593,382.631493 C343.760545,381.572362 342.397758,379.817311 341.83202,377.790546 C341.213332,375.550291 341.692676,373.590068 342.659725,371.552213 C343.476282,369.808252 344.368085,368.283326 345.588741,366.755628 C347.057429,364.914626 348.746281,363.450697 350.705461,362.119853 C352.795625,360.711376 354.994477,359.488663 357.249066,358.371308 C361.25382,356.399995 365.370048,354.484133 369.561523,352.967525 C373.251358,351.636681 376.952341,350.325244 380.717422,349.23007 C384.964634,348.018447 389.25365,347.217168 393.640206,346.729192 Z M376.560098,548.391662 C376.027819,548.461399 375.492754,548.533926 374.960476,548.600875 C375.498328,548.533926 376.030606,548.461399 376.560098,548.391662 Z M357.077601,533.713284 C356.832363,533.746758 356.589911,533.780232 356.344673,533.813706 C356.587124,533.783022 356.832363,533.749548 357.077601,533.713284 Z M418.899902,525.601402 C418.643517,525.637666 418.381558,525.67114 418.122386,525.707403 C418.381558,525.67114 418.643517,525.637666 418.899902,525.601402 Z M369.211933,452.657228 C370.543119,449.926272 373.138569,448.055365 376.080028,447.746685 C376.805909,447.67051 377.554506,447.688678 378.311971,447.81537 C380.762589,448.212378 383.136108,449.796016 384.339969,452.001306 C384.722399,452.54917 385.063665,453.167536 385.589523,454.130528 C385.599231,454.149873 385.608938,454.169218 385.618381,454.186045 C387.181788,456.916147 388.705788,459.660565 390.215407,462.414129 C391.196829,464.085311 392.228472,465.674859 393.464087,467.161547 C394.075326,467.721036 394.710145,468.237324 395.381313,468.734524 C396.022077,469.064371 396.670983,469.35009 397.340265,469.610762 C398.311871,469.804072 399.276586,469.931923 400.265412,470.021609 C401.642841,469.989059 402.993555,469.872768 404.349782,469.638808 C405.19995,469.358682 406.012467,469.03669 406.817155,468.66461 C407.773036,468.052665 408.664119,467.383884 409.525548,466.652033 C412.472864,463.53257 415.036378,459.949387 417.375877,456.351531 L417.521746,456.109679 C418.589483,454.27691 419.746211,452.852256 421.799666,452.051312 C423.757397,451.288414 425.980162,451.342789 427.889204,452.206447 C429.7361,453.038445 431.215676,454.583531 431.953143,456.463585 C432.661775,458.239757 432.811905,460.807625 431.803589,462.524704 C430.515652,464.719124 429.164242,466.869296 427.69586,468.952834 C425.897008,471.516505 424.13111,474.198899 421.986568,476.490848 C420.074949,478.541992 417.98159,480.688571 415.501243,482.073947 C413.169226,483.362302 410.992089,484.494405 408.418097,485.184521 C402.675439,486.721339 396.321159,486.820531 390.681362,484.767664 C384.90648,482.670428 380.070697,478.295744 376.915683,473.077771 C375.609041,470.916358 374.406384,468.698214 373.053807,466.561985 C372.274636,465.330304 371.49361,464.081 370.538675,462.977218 C368.085202,460.172522 367.593613,455.988495 369.211933,452.657228 Z M408.87152,399.120535 C410.318676,398.405181 411.746898,398 413.175119,398 C414.533012,398 415.888199,398.36606 417.251502,399.176422 C418.614804,399.992372 419.415474,401.031871 420.272947,402.373159 C421.192636,403.815044 421.27649,405.265312 421.465837,406.913979 C421.676824,408.638094 421.549691,410.429273 421.582151,412.164565 C421.666004,417.032324 421.836417,421.900083 421.99601,426.770637 C422.142078,431.25557 418.255044,435 414.016363,435 C409.558581,435 406.199014,431.25557 406.050241,426.770637 C405.912288,422.838985 405.774335,418.910128 405.649906,414.98127 C405.584987,412.95816 405.587692,410.904312 405.447034,408.870025 C404.919566,407.288422 404.857352,405.522393 405.268506,403.954762 C405.774335,402.079752 407.118702,399.983989 408.87152,399.120535 Z M383.976558,403.879058 C384.968922,402.128285 386.601691,400.823411 388.493798,400.27903 C389.147435,400.09301 389.819596,400 390.489111,400 C391.828141,400 393.161878,400.363833 394.323605,401.069613 C395.461516,401.764452 396.371844,402.705493 397.041359,403.879058 C397.507108,404.926787 397.994028,405.952631 398.189854,407.096105 C398.385681,408.206753 398.499472,409.34202 398.645019,410.46361 C398.809089,411.732921 398.92288,413.01591 399.026086,414.298899 C399.224559,416.725362 399.399215,419.140883 399.534177,421.56461 C399.843794,427.175293 399.978756,424.579224 399.999926,430.200849 C400.01845,434.451947 396.557085,438 392.452668,438 C388.329728,438 384.937167,434.451947 384.908057,430.200849 C384.868363,420.938161 384.463478,419.906846 383.338799,410.712548 C383.299105,410.441725 383.256764,410.173638 383.211777,409.908286 C382.838648,407.758117 382.880989,405.813116 383.976558,403.879058 Z M509.925318,312.406417 C510.709877,312.129828 511.502812,312 512.287371,312 C516.045437,312 519.527092,314.960636 520.61319,318.547831 C522.162764,323.650624 518.759285,327.610368 515.674097,331.115716 C514.124523,332.86839 512.563781,334.609774 511.028168,336.362448 C507.864803,339.958111 504.908049,343.728758 501.864741,347.42038 C500.457561,349.142008 497.830265,350 495.71391,350 C493.413282,350 491.176869,349.074272 489.551911,347.42038 C487.926952,345.777778 487,343.528372 487,341.202763 C487,338.699346 488.024673,336.847891 489.551911,334.973856 C494.203425,329.306595 498.866107,323.644979 503.542748,317.99183 C503.704686,317.565657 503.90292,317.14795 504.134658,316.75 C504.885713,315.46019 505.90201,314.43568 507.177965,313.673648 C508.007197,313.078134 508.964861,312.74792 509.925318,312.406417 Z M433.113563,275.295073 C433.822345,275.095547 434.539368,275 435.250897,275 C438.110749,275 440.849722,276.55124 442.355197,279.136639 C444.349675,282.573534 444.028251,286.755136 443.899132,290.596702 C443.79199,293.474363 443.662871,296.337974 443.426611,299.215636 C442.890904,305.811214 441.945862,312.353398 440.915656,318.895582 C440.594231,320.916128 438.836013,322.880469 437.171201,323.869665 C435.292105,324.988132 433.006422,325.297255 430.904802,324.7043 C428.866368,324.133826 427.105403,322.739958 426.031242,320.882405 C424.841697,318.785984 424.852686,316.768248 425.215319,314.461061 C425.58894,312.049895 425.95432,309.638729 426.303216,307.230373 C426.701562,303.464683 427.069689,299.707424 427.190567,295.922062 C427.330675,291.86973 427.49276,287.741522 427.168589,283.680759 C427.174083,283.720102 427.179578,283.759445 427.185072,283.798788 C427.097161,282.185724 427.358147,280.659776 428.231761,279.136639 C429.294934,277.270655 431.075129,275.865547 433.113563,275.295073 Z M341.998831,287.069353 C343.23185,286.349006 344.609603,286 345.984572,286 C348.063726,286 350.128963,286.798525 351.654233,288.322982 C353.068169,289.730173 354.459838,291.26859 355.372773,293.058291 C356.099224,294.496194 356.731042,295.97877 357.32946,297.475306 C358.089312,299.359937 358.851946,301.24736 359.558914,303.157119 C361.167684,307.509917 362.667903,311.907389 364.35739,316.235059 C364.847258,317.28766 365.384442,318.306757 365.971726,319.320269 C368.081497,322.983433 366.842911,327.816463 363.188388,329.963546 C359.547781,332.091085 354.696422,330.837457 352.578301,327.171501 C350.29318,323.212381 348.815228,318.904255 347.173058,314.65197 C346.293523,312.362492 345.394504,310.081391 344.481569,307.808666 C343.844185,306.345635 343.212367,304.877019 342.488699,303.461452 C341.497831,301.543317 340.356662,299.78712 339.140343,298.008587 C336.682655,294.409641 338.455642,289.152219 341.998831,287.069353 Z M271.777091,348.735938 C271.84834,348.748481 271.91959,348.761025 271.993579,348.774051 C274.640757,349.240093 277.181976,350.46612 279.634841,351.552461 C282.026452,352.63366 284.410485,353.693777 286.844796,354.661184 C291.817877,356.628494 296.935164,358.147238 301.882304,360.197437 C306.439335,362.088679 308.206346,367.954617 306.170108,372.236929 C303.977233,376.830204 298.668074,378.397876 294.123295,376.517254 C288.929675,374.358775 283.558662,372.772792 278.318476,370.749994 C275.98653,369.842926 273.694545,368.821584 271.370972,367.851103 C268.977276,366.845708 266.418874,366.084968 264.457874,364.309404 C261.480421,361.601643 260.404676,357.389291 262.160519,353.686732 C263.88365,350.057405 267.847278,348.10897 271.777091,348.735938 Z M281.453308,432.402007 C282.260517,432.128419 283.081501,432 283.896974,432 C287.844859,432 291.621935,434.998303 292.666072,438.859247 C294.043562,443.917836 291.01033,448.60792 286.307581,450.221532 C285.310279,450.562121 284.326751,450.933419 283.343224,451.301926 C278.185903,453.722344 273.171841,456.51406 268.463582,459.730117 C265.149342,461.988616 260.328129,461.061766 257.61723,458.311925 C255.947713,456.622937 255,454.300229 255,451.899353 C255,450.263407 255.410492,448.73913 256.217701,447.332105 C257.58417,444.420345 260.694542,442.597355 263.342076,441.017243 C265.041898,440.00385 266.76376,439.032333 268.496642,438.08315 C272.62911,435.816276 276.998507,433.917909 281.453308,432.402007 Z M292.339491,498.652395 C294.003923,496.852948 296.342449,496 298.69762,496 C301.141561,496 303.604919,496.918983 305.352573,498.652395 C309.017096,502.284304 308.745239,507.90551 305.352573,511.559431 C303.111138,513.999964 300.866929,516.429492 298.656009,518.900291 C297.843212,519.802766 297.041511,520.718997 296.239809,521.632478 C294.811172,523.23382 293.379761,524.469219 291.61269,525.767902 C289.759622,527.124365 286.769193,527.253683 284.647043,526.673128 C282.380642,526.04855 280.419387,524.554514 279.23764,522.545958 C278.014283,520.471367 277.678623,517.945539 278.316655,515.634324 C278.752181,514.107271 279.53169,512.786576 280.646859,511.666738 C284.300287,507.132353 288.372596,502.919889 292.339491,498.652395 Z M516.230057,399.1192 C517.584789,398.329176 518.994367,398 520.450567,398 C521.226658,398 522.016461,398.093267 522.817233,398.263341 C528.088071,399.366082 533.326,400.534659 538.566671,401.799245 C543.21499,402.912958 545.935423,408.097487 544.704098,412.598975 C543.395987,417.3254 538.544732,419.854572 533.89367,418.738115 C531.088225,418.063303 528.271809,417.388492 525.452652,416.724653 C523.042107,416.156823 520.590427,415.652086 518.275866,414.752337 C516.112135,413.907451 514.376214,412.889747 513.166828,410.821422 C512.009548,408.849106 511.69966,406.437889 512.297497,404.229664 C512.887107,402.098247 514.324109,400.243886 516.230057,399.1192 Z M490.137059,471.211718 C491.645324,468.6121 494.594944,467 497.533412,467 C498.941312,467 500.349212,467.36856 501.592625,468.178831 C508.464849,472.629691 515.652109,476.453154 522.872823,480.290684 C526.923672,482.431711 528.122478,488.024827 525.889354,491.882051 C523.49453,495.992485 518.451181,497.070032 514.400333,494.914938 C507.213073,491.113982 499.752597,487.552169 493.142437,482.760883 C491.30241,481.421686 489.919601,479.981206 489.297895,477.719201 C488.698492,475.530346 489.016315,473.155804 490.137059,471.211718 Z" id="beaming-with-excitement" fill="#000000"></path>
    </g>
</svg>