<?xml version="1.0" encoding="UTF-8" standalone="no"?>
<svg width="800px" height="1000px" viewBox="300 170 200 550" version="1.1" xmlns="http://www.w3.org/2000/svg" xmlns:xlink="http://www.w3.org/1999/xlink">
    <!-- Generator: Sketch 50.2 (55047) - http://www.bohemiancoding.com/sketch -->
    <title>superhero0001B_DL</title>
    <desc>Created with Sketch.</desc>
    <defs>
        <polygon id="path-1" points="0.465065501 0.77143661 179.834456 0.77143661 179.834456 336.116946 0.465065501 336.116946"></polygon>
    </defs>
    <g id="superhero0001B_DL" stroke="none" stroke-width="1" fill="none" fill-rule="evenodd">
        <g id="Name" transform="translate(309.000000, 921.000000)" fill="#000000" font-family="OpenSans-Regular, Open Sans" font-size="18" font-weight="normal" letter-spacing="0.654545426">
        </g>
        <g id="superhero0001B" transform="translate(188.000000, 205.000000)">
            <ellipse id="Oval-49" fill="#FFFFFF" cx="243.023747" cy="70.6978173" rx="57.4419765" ry="61.8605901"></ellipse>
            <rect id="Rectangle-29" fill="#FFFFFF" x="222.40355" y="159.070089" width="45.659007" height="148.75999"></rect>
            <g id="standing002B" transform="translate(142.868506, 0.000000)">
                <g id="Group-3" transform="translate(0.971865, 146.213191)">
                    <mask id="mask-2" fill="white">
                        <use xlink:href="#path-1"></use>
                    </mask>
                    <g id="Clip-2"></g>
                    <path d="M131.640043,38.7464636 C131.480548,46.0832407 127.030118,95.7171037 130.235457,96.9261798 C131.110107,97.2554602 151.967957,68.3096622 153.315949,63.6122727 C157.709783,48.2955929 141.086272,48.6917582 131.640043,38.7464636 M67.4715409,86.1473944 C65.9228944,81.1155796 68.0426364,53.564078 61.5496402,51.9691264 C57.9481367,51.0841856 43.7221979,70.5323043 40.69179,73.4340871 C32.434057,81.3368148 22.025712,83.9864923 23.7287086,94.7704228 C24.9429298,102.421045 61.9097905,136.244308 67.0650855,133.332235 C70.8003591,131.222783 67.4715409,91.6474047 67.4715409,86.1473944 M78.5487366,23.568699 C84.7330326,26.2286665 76.1768893,33.4419635 75.6778238,35.4382254 C75.6881138,35.4073554 82.2737202,49.8390944 82.6235805,51.4546259 C83.8326567,57.0884064 85.0674579,62.922842 85.9678337,68.6492325 C88.298521,83.4822818 88.1390258,98.3204762 88.1596059,113.282151 C88.1698959,121.226038 86.0398638,148.263039 93.2171458,151.864543 C102.611925,156.582512 104.705942,145.520752 104.855147,140.524952 C104.927177,138.2097 102.467865,136.002493 103.12128,131.361698 C103.630636,127.749905 108.883686,121.354663 109.928122,116.312559 C113.138605,100.800369 111.677424,83.2353216 112.510914,67.4144313 C113.04085,57.3919616 117.89259,33.6992138 112.860775,25.0453154 C107.443084,15.7328564 86.7241495,20.7852513 78.5487366,23.568699 M3.08180369,91.3026894 C-2.94273011,80.1215353 0.560751255,83.1015515 8.74645416,76.6085552 C17.6473128,69.5444634 25.3648202,61.6983308 33.0308776,53.2811027 C38.9013283,46.8395565 54.7788136,34.7385048 58.256837,26.3933067 C62.2390708,16.8544675 60.361144,25.9251113 60.9425296,21.2791718 C61.2975349,18.392824 54.6656235,15.4190111 56.9294257,9.99103086 C59.0080077,4.99008603 73.6198218,5.38625142 77.957061,4.60421066 C89.4715821,2.54106367 106.254588,-1.80132053 117.753674,2.82918395 C124.668561,5.60748663 124.004855,9.37363027 128.93377,14.8119005 C136.147067,22.7660782 149.06103,30.5813408 158.378634,36.009321 C165.591931,40.207645 173.242553,40.8559157 177.399717,48.6351632 C180.87774,55.1487395 180.790275,52.1697816 176.092886,62.4031965 C171.719632,71.9163107 166.245346,81.6866751 159.52597,91.0042791 C151.088162,102.709165 142.007228,114.511807 134.840236,126.427638 C121.951999,147.841149 124.262106,165.040901 121.478658,189.87584 C119.235436,209.961939 117.856575,230.716889 119.688196,251.831989 C120.645167,262.87317 120.938433,273.744566 121.560978,284.857776 C121.895403,290.898012 122.368744,296.778753 122.605414,302.855004 C123.07361,314.873735 122.785489,312.820878 130.919742,318.634734 C134.413201,321.130061 138.318259,323.157193 138.67841,326.084701 C139.722846,334.594539 128.918335,336.935517 122.070334,335.880791 C98.3004107,332.217547 105.050657,278.555145 103.985641,259.158477 C102.52446,232.589671 106.511839,204.590554 103.321936,178.330448 C102.77142,173.802844 106.547732,167.508373 93.7728063,170.376271 C89.7133464,171.287596 89.7185424,184.627935 88.9467916,190.086785 C85.5202183,214.438093 85.7465985,239.411947 84.110487,263.871301 C83.2769962,276.399388 80.1899932,288.618775 78.8522919,301.110847 C77.8335809,310.680556 81.4453744,318.696474 74.0005522,324.330254 C67.2811757,329.418664 45.4560646,331.826527 43.3826276,320.209106 C41.2628856,308.313854 55.5659994,312.666528 61.0557197,306.610857 C67.3120457,299.706261 66.1081146,274.346531 66.7100801,265.296467 C67.7493712,249.768842 68.1146665,234.189767 68.9069973,218.646707 C69.5398329,206.175215 71.1988231,170.454115 71.1988231,166.035502 C71.1988231,161.616888 72.6716943,160.144017 68.9069973,157.153608 C65.1423003,154.163199 10.8111042,105.647783 3.08180369,91.3026894 Z" id="Fill-1" fill="#000000" mask="url(#mask-2)"></path>
                </g>
                <path d="M102.666436,18.3073073 C88.8263725,19.063623 77.8263518,22.8091867 68.5499079,33.2123867 C66.7028511,35.2909687 53.3927232,50.6127935 53.5213484,51.8990448 C53.7888886,54.4664022 59.5204242,55.5262733 60.34877,58.0524707 C62.5199621,64.6277871 60.9661705,59.1277767 60.8015304,70.0300423 C60.6163102,82.6661745 57.7248174,92.4108139 63.1579427,104.22889 C77.2089512,134.733625 93.3025268,120.826676 116.629979,108.488954 C127.449925,102.772854 131.704844,101.599793 136.824124,91.1502877 C141.789054,81.0043379 143.32741,69.6853269 144.752576,58.5875512 C148.390095,30.1716888 127.56826,20.4630644 102.666436,18.3073073 M91.43489,1.15900575 C99.0186273,2.52243207 106.99853,-0.77551612 114.973288,0.567330177 C123.184716,1.95648152 131.684264,5.26986472 138.722631,9.71514901 C151.724058,17.9317219 160.305927,30.392924 163.46496,45.3648884 C167.869084,66.2073036 161.108547,101.666678 143.260525,116.643787 C130.855918,127.046987 111.418089,137.897803 95.4840089,141.015676 C77.7543218,144.483409 64.1354936,135.011455 52.4769123,122.138653 C41.2042065,109.677451 34.7729502,97.2316835 35.8122413,80.2737472 C36.3576118,71.3368735 37.7982132,62.5594951 42.8763331,55.0632228 C42.1766124,56.0870788 50.6915956,50.3555433 50.5629705,51.106714 C50.5218105,51.3330942 48.0624981,43.1834063 47.933873,41.4598297 C47.8155378,39.8082831 48.988599,31.7409153 49.4207794,30.2077038 C54.5863644,11.9480812 73.0106272,1.40596599 91.43489,1.15900575" id="Fill-4" fill="#000000"></path>
            </g>
            <path d="M222.570794,196.059898 C225.040126,180.735895 224.782904,180.407937 212.037552,179.797034 C200.147463,179.224715 188.411708,180.555839 177.11323,184.137656 C155.435842,190.999054 146.606696,208.792389 141.05713,228.688513 C134.993121,250.423776 129.842249,272.41626 123.881129,294.177245 C121.591853,302.556252 118.048619,310.58158 115.283482,318.831977 C107.335321,342.599293 74.2822891,357.26095 49.0745293,341.467516 C34.284262,332.207523 20.9280077,321.854336 12.3689443,305.913 C17.3847741,309.912803 22.4906316,313.816147 27.3907114,317.944561 C30.5352508,320.587517 33.4289987,323.519849 36.36133,326.400735 C60.5466322,350.135899 89.1883062,344.489875 102.0687,312.234232 C107.598974,298.389255 111.245096,284.383515 112.872025,269.348887 C115.174163,248.01875 118.788132,226.650029 127.128557,206.522404 C138.497771,179.102535 159.319895,165.128948 188.636777,163.444143 C199.915963,162.794658 211.227302,162.550297 222.262128,165.752711 C228.216818,167.482529 234.06862,169.668917 238.434964,174.221747 C243.605127,179.616979 242.601961,185.140822 236.113535,188.85125 C232.184468,191.101943 228.12036,193.114706 222.570794,196.059898" id="Fill-246" fill="#000000" transform="translate(127.051898, 255.543152) rotate(-8.000000) translate(-127.051898, -255.543152) "></path>
        </g>
    </g>
</svg>